<svg xmlns="http://www.w3.org/2000/svg" xmlns:xlink="http://www.w3.org/1999/xlink" xmlns:lucid="lucid" width="1719" height="1162"><g transform="translate(-80 -40)" lucid:page-tab-id="3e92dG6CwfC8"><path d="M535.04 188.5v9.9m0 9.92v19.83m0 9.9v19.83m0 9.9v19.84m0 9.9v19.83m0 9.9v19.84m0 9.9v19.82m0 9.92v19.82m0 9.9v19.83m0 9.9v19.83m0 9.9v19.83m0 9.92v19.82m0 9.9v19.84m0 9.9v19.83m0 9.9v19.84m0 9.92v19.82m0 9.9v19.84m0 9.9v19.83m0 9.92v19.83m0 9.9v19.83m0 9.9v19.84m0 9.9v19.83m0 9.9v19.84m0 9.9v19.82m0 9.9v19.84m0 9.9v19.83m0 9.9v19.83m0 9.9v19.84m0 9.9V1031m0 9.9v19.83m0 9.92v19.82m0 9.9v19.84m0 9.92v19.82m0 9.9v19.84m0 9.9v9.92" stroke="#333" fill="none"/><path d="M535.54 188.5h-1v-.5h1z" stroke="#333" stroke-width=".05" fill="#333"/><path d="M535.04 1199.5v.5" stroke="#333" fill="none"/><path d="M516.1 308a8 8 0 0 1 8-8h24a8 8 0 0 1 8 8v724a8 8 0 0 1-8 8h-24a8 8 0 0 1-8-8z" stroke="#f2f2f2" fill="#ced4db"/><path d="M915.04 188.5v9.9m0 9.92v19.83m0 9.9v19.83m0 9.9v19.84m0 9.9v19.83m0 9.9v19.84m0 9.9v19.82m0 9.92v19.82m0 9.9v19.83m0 9.9v19.83m0 9.9v19.83m0 9.92v19.82m0 9.9v19.84m0 9.9v19.83m0 9.9v19.84m0 9.92v19.82m0 9.9v19.84m0 9.9v19.82m0 9.92v19.83m0 9.9v19.83m0 9.9v19.84m0 9.9v19.83m0 9.9v19.84m0 9.9v19.82m0 9.9v19.84m0 9.9v19.83m0 9.9v19.83m0 9.9v19.83m0 9.92V1031m0 9.9v19.83m0 9.92v19.82m0 9.9v19.84m0 9.92v19.82m0 9.9v19.84m0 9.9v9.92" stroke="#333" fill="none"/><path d="M915.54 188.5h-1v-.5h1z" stroke="#333" stroke-width=".05" fill="#333"/><path d="M915.04 1199.5v.5" stroke="#333" fill="none"/><path d="M895.04 368a8 8 0 0 1 8-8h24a8 8 0 0 1 8 8v604a8 8 0 0 1-8 8h-24a8 8 0 0 1-8-8z" stroke="#f2f2f2" fill="#ced4db"/><path d="M1299.5 188.5v9.9m0 9.9v19.83m0 9.9v19.82m0 9.9v19.82m0 9.9v19.82m0 9.9V347m0 9.92v19.8m0 9.92v19.8m0 9.92v19.8m0 9.92v19.8m0 9.92v19.8m0 9.92v19.8m0 9.92v19.8m0 9.92v19.8m0 9.92v19.82m0 9.9v19.82m0 9.9v19.82m0 9.9v9.98l.03.03.02.04.02.03.03.02.04.02.03.02h.16l.03.03.04.02.03.02.02.03.02.04.02.03v9.99m0 9.9v19.83m0 9.9v19.82m0 9.9v19.82m0 9.9v19.82m0 9.9v19.82m0 9.9v19.82m0 9.9v19.82m0 9.9v19.82m0 9.9v19.82m0 9.9v19.82m0 9.9v19.82m0 9.9v19.82m0 9.9v19.82m0 9.9v19.82m0 9.9v19.83m0 9.9v19.82m0 9.9v9.9" stroke="#333" fill="none"/><path d="M1300 188.5h-1v-.5h1z" stroke="#333" stroke-width=".05" fill="#333"/><path d="M1300 1199.5v.5" stroke="#333" fill="none"/><path d="M440 68a8 8 0 0 1 8-8h174.08a8 8 0 0 1 8 8v112a8 8 0 0 1-8 8H448a8 8 0 0 1-8-8z" stroke="#000" stroke-opacity="0" fill="#ffaf28"/><use xlink:href="#a" transform="matrix(1,0,0,1,448,68.00000515437091) translate(3.7037037037037095 60.44444444444444)"/><use xlink:href="#b" transform="matrix(1,0,0,1,448,68.00000515437091) translate(96.11111111111111 60.44444444444444)"/><path d="M820 68a8 8 0 0 1 8-8h174.08a8 8 0 0 1 8 8v112a8 8 0 0 1-8 8H828a8 8 0 0 1-8-8z" stroke="#000" stroke-opacity="0" fill="#ffaf28"/><use xlink:href="#c" transform="matrix(1,0,0,1,828,68.00035432234245) translate(1.234567901234584 60.44444444444444)"/><use xlink:href="#d" transform="matrix(1,0,0,1,828,68.00035432234245) translate(82.5925925925926 60.44444444444444)"/><path d="M1204.46 68a8 8 0 0 1 8-8h174.08a8 8 0 0 1 8 8v112a8 8 0 0 1-8 8h-174.08a8 8 0 0 1-8-8z" stroke="#000" stroke-opacity="0" fill="#ffaf28"/><use xlink:href="#c" transform="matrix(1,0,0,1,1212.462475656472,68) translate(28.333333333333343 60.44444444444444)"/><use xlink:href="#e" transform="matrix(1,0,0,1,1212.462475656472,68) translate(109.69135802469135 60.44444444444444)"/><path d="M159.75 99.75c0 10.9-8.84 19.75-19.75 19.75-10.9 0-19.75-8.84-19.75-19.75C120.25 88.85 129.1 80 140 80c10.9 0 19.75 8.84 19.75 19.75z" stroke="#333" fill="#fff"/><path d="M140 119.5v47.3a27.6 27.6 0 0 0 4.28 14.76L180 238m-40-63.2L100 238m0-98.75h80" stroke="#333" fill="none"/><path d="M100 88a8 8 0 0 1 8-8h64a8 8 0 0 1 8 8v164a8 8 0 0 1-8 8h-64a8 8 0 0 1-8-8z" fill="none"/><use xlink:href="#f" transform="matrix(1,0,0,1,20,238) translate(99.28395061728395 14.555555555555555)"/><path d="M140 280.5v9.88m0 9.88v19.77m0 9.88v19.77m0 9.88v19.77m0 9.88v19.76m0 9.88v19.77m0 9.9v19.75m0 9.88v19.77m0 9.88v19.76m0 9.88v19.77m0 9.87v19.76m0 9.88v19.78m0 9.88v19.76m0 9.88v19.77m0 9.88v19.76m0 9.9v19.76m0 9.88v19.76m0 9.9v19.75m0 9.88V824m0 9.88v19.76m0 9.88v19.76m0 9.9v19.75m0 9.88v19.78m0 9.88v19.76m0 9.88v19.77m0 9.88v19.76m0 9.9v19.76m0 9.88v19.76m0 9.88v19.77m0 9.88v19.76m0 9.87v19.77m0 9.88v9.88M140 280.5v-.5M140 1199.5v.5M140.5 300h378.6M140.5 300h-.5M501.8 310.18L519.02 300l-17.22-10.18" stroke="#333" fill="none"/><use xlink:href="#g" transform="matrix(1,0,0,1,228.93827160493828,274.66666666666663) translate(0.0049999999999954525 14.222222222222223)"/><path d="M557.1 361h340.23" stroke="#3a414a" fill="none"/><path d="M557.12 361.5h-.5v-1h.5z" stroke="#3a414a" stroke-width=".05" fill="#3a414a"/><path d="M880.04 371.18L897.26 361l-17.22-10.18" stroke="#3a414a" fill="none"/><use xlink:href="#h" transform="matrix(1,0,0,1,589.1108133487978,335.3999535609681) translate(0.0049999999999954525 14.4)"/><path d="M1588.92 388a8 8 0 0 1 8-8H1771a8 8 0 0 1 8 8v138a8 8 0 0 1-8 8h-174.08a8 8 0 0 1-8-8z" stroke="#000" stroke-opacity="0" fill="#ffaf28"/><use xlink:href="#i" transform="matrix(1,0,0,1,1596.9249119070848,388) translate(15.462962962962962 60.111111111111114)"/><use xlink:href="#j" transform="matrix(1,0,0,1,1596.9249119070848,388) translate(80.83333333333333 60.111111111111114)"/><use xlink:href="#k" transform="matrix(1,0,0,1,1596.9249119070848,388) translate(43.7962962962963 86.77777777777777)"/><path d="M1683.96 534.5v9.97m0 9.98v19.94m0 9.96v19.95m0 9.98v19.95m0 9.97v19.94m0 9.98v19.94m0 9.98v19.94m0 9.97v19.95m0 9.97v9.97" stroke="#333" fill="none"/><path d="M1684.46 534.5h-1v-.5h1z" stroke="#333" stroke-width=".05" fill="#333"/><path d="M1683.96 773.83v3.5M1683.96 785.66" stroke="#333" fill="none"/><path d="M936.04 419.1H1279.1" stroke="#3a414a" fill="none"/><path d="M936.05 419.6h-.5v-1h.5z" stroke="#3a414a" stroke-width=".05" fill="#3a414a"/><path d="M1261.8 429.28l17.22-10.18-17.22-10.18" stroke="#3a414a" fill="none"/><use xlink:href="#l" transform="matrix(1,0,0,1,1014.7437647899225,393.50091262276186) translate(0.0049999999999954525 14.4)"/><path d="M1279.5 428a8 8 0 0 1 8-8h24a8 8 0 0 1 8 8v344a8 8 0 0 1-8 8h-24a8 8 0 0 1-8-8z" stroke="#f2f2f2" fill="#ced4db"/><path d="M1320.5 478H1572.54" stroke="#3a414a" fill="none"/><path d="M1320.5 478.5h-.5v-1h.5z" stroke="#3a414a" stroke-width=".05" fill="#3a414a"/><path d="M1587.3 478l-14.26 4.62v-9.27z" stroke="#3a414a" fill="#3a414a"/><use xlink:href="#m" transform="matrix(1,0,0,1,1336.6624932249904,452.3884613729675) translate(0.0049999999999954525 14.4)"/><path d="M1663.96 608a8 8 0 0 1 8-8h24a8 8 0 0 1 8 8v104a8 8 0 0 1-8 8h-24a8 8 0 0 1-8-8z" stroke="#f2f2f2" fill="#ced4db"/><path d="M1659.5 720h-10.26m-10.26 0h-20.52m-10.26 0h-20.52m-10.26 0h-20.52m-10.26 0h-20.52m-10.26 0h-20.52m-10.27 0h-20.52m-10.26 0h-20.53m-10.26 0H1403m-10.27 0h-20.52m-10.25 0h-20.52m-10.26 0h-10.26M1659.5 720h.5M1338.2 709.82L1320.98 720l17.22 10.18" stroke="#3a414a" fill="none"/><use xlink:href="#n" transform="matrix(1,0,0,1,1436.075,694.4) translate(0.005000000000002558 14.4)"/><path d="M1320.5 600h338.6" stroke="#3a414a" fill="none"/><path d="M1320.5 600.5h-.5v-1h.5z" stroke="#3a414a" stroke-width=".05" fill="#3a414a"/><path d="M1641.8 610.18l17.22-10.18-17.22-10.18" stroke="#3a414a" fill="none"/><use xlink:href="#o" transform="matrix(1,0,0,1,1428.5748285966952,574.4000171097335) translate(0.005000000000002558 14.4)"/><path d="M1643.96 748a8 8 0 0 1 8-8h64a8 8 0 0 1 8 8v64a8 8 0 0 1-8 8h-64a8 8 0 0 1-8-8z" fill="none"/><path d="M1651.96 748l64 64m0-64l-64 64" stroke="#3a414a" stroke-width="8" fill="none"/><path d="M914.54 980h-9.93m-9.92 0h-19.86m-9.93 0h-19.86m-9.93 0h-19.85m-9.93 0h-19.85m-9.93 0h-19.86m-9.93 0h-19.82m-9.92 0h-19.8m-9.9 0h-19.82m-9.9 0h-19.8m-9.92 0h-19.8m-9.92 0h-19.8m-9.9 0h-9.92M914.52 980h.52M574.8 969.82L557.6 980l17.2 10.18" stroke="#3a414a" fill="none"/><use xlink:href="#p" transform="matrix(1,0,0,1,647.7902277698969,954.4001995623823) translate(0.0049999999999954525 14.4)"/><path d="M533.24 1040.5h-10.06m-10.06 0H493m-10.06 0h-20.12m-10.06 0h-20.12m-10.06 0h-20.12m-10.06 0h-20.12m-10.06 0H342.1m-10.06 0h-20.12m-10.06 0h-20.1m-10.07 0h-20.13m-10.06 0h-20.1m-10.07 0H191.2m-10.05 0h-20.12m-10.06 0H140.9" stroke="#3a414a" fill="none"/><path stroke="#3a414a" stroke-width=".05" fill="#3a414a"/><path d="M158.2 1030.32l-17.22 10.18 17.22 10.18" stroke="#3a414a" fill="none"/><use xlink:href="#p" transform="matrix(1,0,0,1,260.8041594760666,1014.8999598908622) translate(0.0049999999999954525 14.4)"/><path d="M1279.5 780h-9.54m-9.54 0h-19.08m-9.54 0h-19.08m-9.55 0h-19.08m-9.55 0h-19.08m-9.54 0h-19.08m-9.54 0H1098.26m-9.52 0h-19.03m-9.52 0h-19.04m-9.5 0h-19.05m-9.53 0h-19.03m-9.52 0h-19.04m-9.5 0h-9.53M1279.5 780h.5M953.74 769.82L936.52 780l17.22 10.18" stroke="#3a414a" fill="none"/><g><use xlink:href="#n" transform="matrix(1,0,0,1,1053.8437906496238,754.4000002958818) translate(0.005000000000002558 14.4)"/></g><defs><path fill="#333" d="M178-136c88 48 22 151-73 140C49-3 12-15 4-64l51-9c1 50 111 53 115 3-16-63-132-20-133-112 0-93 190-91 199-10l-50 12c-4-41-93-50-97-4 7 38 59 32 89 48" id="q"/><path fill="#333" d="M114-194c63-2 87 48 72 110H63c-3 28 1 55 31 54 21-1 32-13 37-29l44 13C160-14 137 4 91 4 41 4 11-22 11-73c0-71 33-119 103-121zm30 77c14-47-50-61-67-22-3 6-6 13-8 22h75" id="r"/><path fill="#333" d="M151-194c95 0 34 128 28 194h-49l25-134c0-29-45-25-59-9C67-111 69-48 56 0H6l36-190h47l-4 32c15-20 33-36 66-36" id="s"/><path fill="#333" d="M144-137c-1-29-70-35-71-2 16 41 103 10 103 80C176 9 79 16 32-9 18-17 9-31 4-48l44-6c3 32 80 36 82 1-15-42-103-11-103-82 0-77 157-79 161-8" id="t"/><path fill="#333" d="M50-224l7-37h49l-7 37H50zM6 0l37-190h49L55 0H6" id="u"/><path fill="#333" d="M45-171c29-32 103-29 114 14 2-11 5-23 8-33h47L176-2c-3 70-92 96-155 64C9 56 1 42-1 25l50-5c2 28 48 27 63 11 13-13 20-45 21-66-13 20-30 35-62 36-87 3-60-134-26-172zM94-35c41-3 55-43 55-86 0-24-12-39-35-39-43 0-51 48-51 90 0 22 9 37 31 35" id="v"/><g id="a"><use transform="matrix(0.06172839506172839,0,0,0.06172839506172839,0,0)" xlink:href="#q"/><use transform="matrix(0.06172839506172839,0,0,0.06172839506172839,14.814814814814813,0)" xlink:href="#r"/><use transform="matrix(0.06172839506172839,0,0,0.06172839506172839,27.160493827160494,0)" xlink:href="#s"/><use transform="matrix(0.06172839506172839,0,0,0.06172839506172839,40.67901234567901,0)" xlink:href="#t"/><use transform="matrix(0.06172839506172839,0,0,0.06172839506172839,53.02469135802469,0)" xlink:href="#u"/><use transform="matrix(0.06172839506172839,0,0,0.06172839506172839,59.19753086419753,0)" xlink:href="#s"/><use transform="matrix(0.06172839506172839,0,0,0.06172839506172839,72.71604938271605,0)" xlink:href="#v"/></g><path fill="#333" d="M6 0l48-248h52L66-40h133l-8 40H6" id="w"/><path fill="#333" d="M87-160c15-17 32-34 63-34 99 1 59 172-1 192-36 12-78 0-87-29L54 0H6l52-261h49zm71 38c0-24-5-37-29-37-46 0-55 46-57 89-1 25 12 40 35 40 44 0 51-50 51-92" id="x"/><path fill="#333" d="M84-151c13-25 34-51 72-40l-8 41C67-170 71-64 56 0H6l36-190h47" id="y"/><path fill="#333" d="M166-52c-4 17 5 29 24 23l-3 27c-30 11-74 1-67-34C105-15 91 4 56 4 23 4 3-15 2-49c0-64 63-67 128-67 10-22 3-53-29-45-13 3-22 10-25 24l-46-5c5-64 156-77 153 0-1 33-11 60-17 90zM97-88c-44-9-64 57-19 57 31 0 42-28 47-57H97" id="z"/><path fill="#333" d="M100 10C77 47 50 87-15 72l7-35c37 9 51-18 65-41L20-190h51L89-44l73-146h53" id="A"/><g id="b"><use transform="matrix(0.06172839506172839,0,0,0.06172839506172839,0,0)" xlink:href="#w"/><use transform="matrix(0.06172839506172839,0,0,0.06172839506172839,13.518518518518517,0)" xlink:href="#u"/><use transform="matrix(0.06172839506172839,0,0,0.06172839506172839,19.691358024691358,0)" xlink:href="#x"/><use transform="matrix(0.06172839506172839,0,0,0.06172839506172839,33.20987654320987,0)" xlink:href="#y"/><use transform="matrix(0.06172839506172839,0,0,0.06172839506172839,41.85185185185185,0)" xlink:href="#z"/><use transform="matrix(0.06172839506172839,0,0,0.06172839506172839,54.197530864197525,0)" xlink:href="#y"/><use transform="matrix(0.06172839506172839,0,0,0.06172839506172839,62.8395061728395,0)" xlink:href="#A"/></g><path fill="#333" d="M124-194c51 0 84 22 84 74C207-44 167 4 94 4 43 4 11-23 11-74c0-74 41-120 113-120zM99-30c46 0 58-42 58-86 0-27-11-44-37-44-44 0-55 40-57 84-1 27 10 45 36 46" id="B"/><g id="c"><use transform="matrix(0.06172839506172839,0,0,0.06172839506172839,0,0)" xlink:href="#q"/><use transform="matrix(0.06172839506172839,0,0,0.06172839506172839,14.814814814814813,0)" xlink:href="#r"/><use transform="matrix(0.06172839506172839,0,0,0.06172839506172839,27.160493827160494,0)" xlink:href="#s"/><use transform="matrix(0.06172839506172839,0,0,0.06172839506172839,40.67901234567901,0)" xlink:href="#t"/><use transform="matrix(0.06172839506172839,0,0,0.06172839506172839,53.02469135802469,0)" xlink:href="#B"/><use transform="matrix(0.06172839506172839,0,0,0.06172839506172839,66.5432098765432,0)" xlink:href="#y"/></g><path fill="#333" d="M212 0l43-212L151 0h-37L90-212C82-137 65-70 52 0H6l48-248h70l20 187 93-187h69L258 0h-46" id="C"/><g id="d"><use transform="matrix(0.06172839506172839,0,0,0.06172839506172839,0,0)" xlink:href="#C"/><use transform="matrix(0.06172839506172839,0,0,0.06172839506172839,18.456790123456788,0)" xlink:href="#z"/><use transform="matrix(0.06172839506172839,0,0,0.06172839506172839,30.80246913580247,0)" xlink:href="#s"/><use transform="matrix(0.06172839506172839,0,0,0.06172839506172839,44.32098765432099,0)" xlink:href="#z"/><use transform="matrix(0.06172839506172839,0,0,0.06172839506172839,56.666666666666664,0)" xlink:href="#v"/><use transform="matrix(0.06172839506172839,0,0,0.06172839506172839,70.18518518518518,0)" xlink:href="#r"/><use transform="matrix(0.06172839506172839,0,0,0.06172839506172839,82.53086419753086,0)" xlink:href="#y"/></g><path fill="#333" d="M183 0l-10-63H79L44 0H-7l138-248h61L234 0h-51zm-14-102l-15-108c-16 38-36 73-55 108h70" id="D"/><path fill="#333" d="M241-173c-1 82-78 91-166 86L58 0H6l48-248c87 0 188-12 187 75zm-53 2c0-43-48-36-90-36l-15 80c50 0 105 7 105-44" id="E"/><path fill="#333" d="M6 0l48-248h52L58 0H6" id="F"/><g id="e"><use transform="matrix(0.06172839506172839,0,0,0.06172839506172839,0,0)" xlink:href="#D"/><use transform="matrix(0.06172839506172839,0,0,0.06172839506172839,15.987654320987653,0)" xlink:href="#E"/><use transform="matrix(0.06172839506172839,0,0,0.06172839506172839,30.80246913580247,0)" xlink:href="#F"/></g><path fill="#333" d="M187 0l-14-72H61L19 0h-37l149-248h38L221 0h-34zm-19-99l-22-123L76-99h92" id="G"/><path fill="#333" d="M44-68c0 29 11 47 38 47 30 0 42-19 51-41l28 9C148-21 126 4 82 4 31 4 10-29 12-85c3-77 74-140 146-93 12 8 15 23 18 40l-31 5c-1-22-13-36-36-36-52 0-65 49-65 101" id="H"/><path fill="#333" d="M51-54c-9 22 5 41 31 30L79-1C43 14 10-4 19-52l22-115H19l5-23h22l19-43h21l-9 43h35l-4 23H73" id="I"/><path fill="#333" d="M30-147c31-64 166-65 159 27C183-49 158 1 86 4 9 8 1-88 30-147zM88-20c53 0 68-48 68-100 0-31-11-51-44-50-52 1-68 46-68 97 0 32 13 53 44 53" id="J"/><path fill="#333" d="M66-151c12-25 30-51 66-40l-6 26C45-176 58-65 38 0H6l36-190h30" id="K"/><g id="f"><use transform="matrix(0.04938271604938272,0,0,0.04938271604938272,0,0)" xlink:href="#G"/><use transform="matrix(0.04938271604938272,0,0,0.04938271604938272,11.851851851851853,0)" xlink:href="#H"/><use transform="matrix(0.04938271604938272,0,0,0.04938271604938272,20.74074074074074,0)" xlink:href="#I"/><use transform="matrix(0.04938271604938272,0,0,0.04938271604938272,25.679012345679016,0)" xlink:href="#J"/><use transform="matrix(0.04938271604938272,0,0,0.04938271604938272,35.55555555555556,0)" xlink:href="#K"/></g><path fill="#333" d="M111-194c62-3 86 47 72 106H45c-7 38 6 69 45 68 27-1 43-14 53-32l24 11C152-15 129 4 87 4 38 3 12-23 12-71c0-70 32-119 99-123zm44 81c14-66-71-72-95-28-4 8-8 17-11 28h106" id="L"/><path fill="#333" d="M248-111c6-24 9-61-24-58-72 9-57 108-77 169h-31l26-142c3-37-50-30-64-10C52-115 50-51 37 0H6l36-190h30c-1 10-6 24-4 32 13-43 101-52 105 5 13-22 29-41 61-41 90 0 28 129 23 194h-31" id="M"/><path fill="#333" d="M89 0H52L20-190h33L74-25l89-165h34" id="N"/><path fill="#333" d="M194-120c59 52 2 134-86 124-53-6-90-18-98-63l31-7c8 30 29 43 70 43 46 0 84-17 71-62-32-43-135-20-137-98-3-89 178-90 191-16l-30 9c-8-48-127-53-127 5 0 53 81 35 115 65" id="O"/><path fill="#333" d="M67-158c22-48 132-52 116 29L158 0h-32l25-140c3-38-53-32-70-12C52-117 51-52 38 0H6l36-190h30" id="P"/><path fill="#333" d="M55-144c13 50 104 24 104 88C159 21 15 23 1-39l26-10c6 40 102 42 102-4-13-50-104-23-104-87 0-71 143-71 148-8l-29 4c-5-35-85-37-89 0" id="Q"/><path fill="#333" d="M17-49c1-102 45-165 103-212h30C92-210 49-145 49-46 49 4 63 43 85 75H54C30 43 18 2 17-49" id="R"/><path fill="#333" d="M50-231l6-30h32l-6 30H50zM6 0l37-190h31L37 0H6" id="S"/><path fill="#333" d="M14 0l48-248h34L48 0H14" id="T"/><path fill="#333" d="M133-28C103 26-5 8 13-77c13-62 24-115 90-117 29-1 46 15 56 35l19-102h32L160 0h-30zM45-64c-2 27 10 43 35 43 54-1 69-50 69-103 0-29-15-46-42-46-53-1-58 58-62 106" id="U"/><path fill="#333" d="M98-137C97-35 54 29-4 75h-31C23 23 67-41 67-140c0-50-15-89-37-121h31c24 32 36 73 37 124" id="V"/><g id="g"><use transform="matrix(0.04938271604938272,0,0,0.04938271604938272,0,0)" xlink:href="#K"/><use transform="matrix(0.04938271604938272,0,0,0.04938271604938272,5.8765432098765435,0)" xlink:href="#L"/><use transform="matrix(0.04938271604938272,0,0,0.04938271604938272,15.753086419753087,0)" xlink:href="#M"/><use transform="matrix(0.04938271604938272,0,0,0.04938271604938272,30.518518518518523,0)" xlink:href="#J"/><use transform="matrix(0.04938271604938272,0,0,0.04938271604938272,40.39506172839506,0)" xlink:href="#N"/><use transform="matrix(0.04938271604938272,0,0,0.04938271604938272,49.28395061728395,0)" xlink:href="#L"/><use transform="matrix(0.04938271604938272,0,0,0.04938271604938272,59.1604938271605,0)" xlink:href="#O"/><use transform="matrix(0.04938271604938272,0,0,0.04938271604938272,71.01234567901234,0)" xlink:href="#L"/><use transform="matrix(0.04938271604938272,0,0,0.04938271604938272,80.88888888888889,0)" xlink:href="#P"/><use transform="matrix(0.04938271604938272,0,0,0.04938271604938272,90.76543209876543,0)" xlink:href="#Q"/><use transform="matrix(0.04938271604938272,0,0,0.04938271604938272,99.65432098765432,0)" xlink:href="#J"/><use transform="matrix(0.04938271604938272,0,0,0.04938271604938272,109.53086419753085,0)" xlink:href="#K"/><use transform="matrix(0.04938271604938272,0,0,0.04938271604938272,115.40740740740739,0)" xlink:href="#R"/><use transform="matrix(0.04938271604938272,0,0,0.04938271604938272,121.28395061728394,0)" xlink:href="#O"/><use transform="matrix(0.04938271604938272,0,0,0.04938271604938272,133.1358024691358,0)" xlink:href="#L"/><use transform="matrix(0.04938271604938272,0,0,0.04938271604938272,143.01234567901236,0)" xlink:href="#P"/><use transform="matrix(0.04938271604938272,0,0,0.04938271604938272,152.8888888888889,0)" xlink:href="#Q"/><use transform="matrix(0.04938271604938272,0,0,0.04938271604938272,161.7777777777778,0)" xlink:href="#J"/><use transform="matrix(0.04938271604938272,0,0,0.04938271604938272,171.65432098765433,0)" xlink:href="#S"/><use transform="matrix(0.04938271604938272,0,0,0.04938271604938272,175.55555555555557,0)" xlink:href="#K"/><use transform="matrix(0.04938271604938272,0,0,0.04938271604938272,181.4320987654321,0)" xlink:href="#T"/><use transform="matrix(0.04938271604938272,0,0,0.04938271604938272,186.37037037037038,0)" xlink:href="#U"/><use transform="matrix(0.04938271604938272,0,0,0.04938271604938272,196.24691358024694,0)" xlink:href="#V"/></g><path fill="#3a414a" d="M135-143c-3-34-86-38-87 0 15 53 115 12 119 90S17 21 10-45l28-5c4 36 97 45 98 0-10-56-113-15-118-90-4-57 82-63 122-42 12 7 21 19 24 35" id="W"/><path fill="#3a414a" d="M59-47c-2 24 18 29 38 22v24C64 9 27 4 27-40v-127H5v-23h24l9-43h21v43h35v23H59v120" id="X"/><path fill="#3a414a" d="M100-194c62-1 85 37 85 99 1 63-27 99-86 99S16-35 15-95c0-66 28-99 85-99zM99-20c44 1 53-31 53-75 0-43-8-75-51-75s-53 32-53 75 10 74 51 75" id="Y"/><path fill="#3a414a" d="M115-194c55 1 70 41 70 98S169 2 115 4C84 4 66-9 55-30l1 105H24l-1-265h31l2 30c10-21 28-34 59-34zm-8 174c40 0 45-34 45-75s-6-73-45-74c-42 0-51 32-51 76 0 43 10 73 51 73" id="Z"/><path fill="#3a414a" d="M185-189c-5-48-123-54-124 2 14 75 158 14 163 119 3 78-121 87-175 55-17-10-28-26-33-46l33-7c5 56 141 63 141-1 0-78-155-14-162-118-5-82 145-84 179-34 5 7 8 16 11 25" id="aa"/><path fill="#3a414a" d="M100-194c63 0 86 42 84 106H49c0 40 14 67 53 68 26 1 43-12 49-29l28 8c-11 28-37 45-77 45C44 4 14-33 15-96c1-61 26-98 85-98zm52 81c6-60-76-77-97-28-3 7-6 17-6 28h103" id="ab"/><path fill="#3a414a" d="M117-194c89-4 53 116 60 194h-32v-121c0-31-8-49-39-48C34-167 62-67 57 0H25l-1-190h30c1 10-1 24 2 32 11-22 29-35 61-36" id="ac"/><path fill="#3a414a" d="M114-163C36-179 61-72 57 0H25l-1-190h30c1 12-1 29 2 39 6-27 23-49 58-41v29" id="ad"/><path fill="#3a414a" d="M127-220V0H93v-220H8v-28h204v28h-85" id="ae"/><path fill="#3a414a" d="M141-36C126-15 110 5 73 4 37 3 15-17 15-53c-1-64 63-63 125-63 3-35-9-54-41-54-24 1-41 7-42 31l-33-3c5-37 33-52 76-52 45 0 72 20 72 64v82c-1 20 7 32 28 27v20c-31 9-61-2-59-35zM48-53c0 20 12 33 32 33 41-3 63-29 60-74-43 2-92-5-92 41" id="af"/><path fill="#3a414a" d="M96-169c-40 0-48 33-48 73s9 75 48 75c24 0 41-14 43-38l32 2c-6 37-31 61-74 61-59 0-76-41-82-99-10-93 101-131 147-64 4 7 5 14 7 22l-32 3c-4-21-16-35-41-35" id="ag"/><path fill="#3a414a" d="M143 0L79-87 56-68V0H24v-261h32v163l83-92h37l-77 82L181 0h-38" id="ah"/><path fill="#3a414a" d="M24-231v-30h32v30H24zM24 0v-190h32V0H24" id="ai"/><path fill="#3a414a" d="M177-190C167-65 218 103 67 71c-23-6-38-20-44-43l32-5c15 47 100 32 89-28v-30C133-14 115 1 83 1 29 1 15-40 15-95c0-56 16-97 71-98 29-1 48 16 59 35 1-10 0-23 2-32h30zM94-22c36 0 50-32 50-73 0-42-14-75-50-75-39 0-46 34-46 75s6 73 46 73" id="aj"/><path fill="#3a414a" d="M87 75C49 33 22-17 22-94c0-76 28-126 65-167h31c-38 41-64 92-64 168S80 34 118 75H87" id="ak"/><path fill="#3a414a" d="M33 0v-248h34V0H33" id="al"/><path fill="#3a414a" d="M85-194c31 0 48 13 60 33l-1-100h32l1 261h-30c-2-10 0-23-3-31C134-8 116 4 85 4 32 4 16-35 15-94c0-66 23-100 70-100zm9 24c-40 0-46 34-46 75 0 40 6 74 45 74 42 0 51-32 51-76 0-42-9-74-50-73" id="am"/><path fill="#3a414a" d="M33-261c38 41 65 92 65 168S71 34 33 75H2C39 34 66-17 66-93S39-220 2-261h31" id="an"/><g id="h"><use transform="matrix(0.05,0,0,0.05,0,0)" xlink:href="#W"/><use transform="matrix(0.05,0,0,0.05,9,0)" xlink:href="#X"/><use transform="matrix(0.05,0,0,0.05,14,0)" xlink:href="#Y"/><use transform="matrix(0.05,0,0,0.05,24,0)" xlink:href="#Z"/><use transform="matrix(0.05,0,0,0.05,34,0)" xlink:href="#aa"/><use transform="matrix(0.05,0,0,0.05,46,0)" xlink:href="#ab"/><use transform="matrix(0.05,0,0,0.05,56,0)" xlink:href="#ac"/><use transform="matrix(0.05,0,0,0.05,66,0)" xlink:href="#W"/><use transform="matrix(0.05,0,0,0.05,75,0)" xlink:href="#Y"/><use transform="matrix(0.05,0,0,0.05,85,0)" xlink:href="#ad"/><use transform="matrix(0.05,0,0,0.05,90.95,0)" xlink:href="#ae"/><use transform="matrix(0.05,0,0,0.05,101.25,0)" xlink:href="#ad"/><use transform="matrix(0.05,0,0,0.05,107.2,0)" xlink:href="#af"/><use transform="matrix(0.05,0,0,0.05,117.2,0)" xlink:href="#ag"/><use transform="matrix(0.05,0,0,0.05,126.2,0)" xlink:href="#ah"/><use transform="matrix(0.05,0,0,0.05,135.2,0)" xlink:href="#ai"/><use transform="matrix(0.05,0,0,0.05,139.14999999999998,0)" xlink:href="#ac"/><use transform="matrix(0.05,0,0,0.05,149.14999999999998,0)" xlink:href="#aj"/><use transform="matrix(0.05,0,0,0.05,159.14999999999998,0)" xlink:href="#ak"/><use transform="matrix(0.05,0,0,0.05,165.09999999999997,0)" xlink:href="#aa"/><use transform="matrix(0.05,0,0,0.05,177.09999999999997,0)" xlink:href="#ab"/><use transform="matrix(0.05,0,0,0.05,187.09999999999997,0)" xlink:href="#ac"/><use transform="matrix(0.05,0,0,0.05,197.09999999999997,0)" xlink:href="#W"/><use transform="matrix(0.05,0,0,0.05,206.09999999999997,0)" xlink:href="#Y"/><use transform="matrix(0.05,0,0,0.05,216.09999999999997,0)" xlink:href="#ad"/><use transform="matrix(0.05,0,0,0.05,222.04999999999995,0)" xlink:href="#al"/><use transform="matrix(0.05,0,0,0.05,227.04999999999995,0)" xlink:href="#am"/><use transform="matrix(0.05,0,0,0.05,237.04999999999995,0)" xlink:href="#an"/></g><path fill="#333" d="M240-76C239 26 104-5 6 0l48-248c79 4 193-21 193 58 0 38-25 53-57 60 29 5 49 21 50 54zm-45-106c0-40-58-24-96-27l-12 61c45-3 108 12 108-34zm-7 105c0-44-65-31-109-33L66-38c51-3 122 14 122-39" id="ao"/><path fill="#333" d="M67-101c-8 29-7 73 27 71 23-2 32-16 39-37l48 9C170-19 141 4 91 4 36 4 7-28 12-86c6-75 61-124 140-103 26 7 40 29 43 59l-50 4c-1-20-9-34-29-34-35 0-41 29-49 59" id="ap"/><g id="i"><use transform="matrix(0.06172839506172839,0,0,0.06172839506172839,0,0)" xlink:href="#ao"/><use transform="matrix(0.06172839506172839,0,0,0.06172839506172839,15.987654320987653,0)" xlink:href="#z"/><use transform="matrix(0.06172839506172839,0,0,0.06172839506172839,28.333333333333332,0)" xlink:href="#t"/><use transform="matrix(0.06172839506172839,0,0,0.06172839506172839,40.67901234567901,0)" xlink:href="#u"/><use transform="matrix(0.06172839506172839,0,0,0.06172839506172839,46.851851851851855,0)" xlink:href="#ap"/></g><path fill="#333" d="M72-63c-8 23 5 39 32 30L98-1C54 14 12-6 23-64l18-93H15l7-33h28l24-45h31l-8 45h35l-6 33H90" id="aq"/><path fill="#333" d="M150-105c8-23 8-54-22-51-68 7-54 98-72 156H6l50-261h50L85-158c15-20 33-36 66-36 95 0 34 128 28 194h-49" id="ar"/><path fill="#333" d="M132-28C118-9 101 4 69 4 30 4 10-23 10-62c0-70 24-129 92-132 31-1 47 14 56 35l19-102h49L179 0h-49zM62-69c0 22 7 39 29 39 45-2 54-45 57-90 2-27-10-40-33-40-44 0-53 48-53 91" id="as"/><g id="j"><use transform="matrix(0.06172839506172839,0,0,0.06172839506172839,0,0)" xlink:href="#C"/><use transform="matrix(0.06172839506172839,0,0,0.06172839506172839,18.456790123456788,0)" xlink:href="#r"/><use transform="matrix(0.06172839506172839,0,0,0.06172839506172839,30.80246913580247,0)" xlink:href="#aq"/><use transform="matrix(0.06172839506172839,0,0,0.06172839506172839,38.148148148148145,0)" xlink:href="#ar"/><use transform="matrix(0.06172839506172839,0,0,0.06172839506172839,51.666666666666664,0)" xlink:href="#B"/><use transform="matrix(0.06172839506172839,0,0,0.06172839506172839,65.18518518518518,0)" xlink:href="#as"/></g><path fill="#333" d="M161-211c-63 0-91 46-91 110 0 39 17 65 58 64 38-1 60-20 74-45l40 20C220-23 184 0 125 4 9 13-10-144 57-208c33-50 166-62 196-1 4 8 9 18 11 27l-48 12c-6-24-25-41-55-41" id="at"/><path fill="#333" d="M6 0l51-261h49L55 0H6" id="au"/><g id="k"><use transform="matrix(0.06172839506172839,0,0,0.06172839506172839,0,0)" xlink:href="#at"/><use transform="matrix(0.06172839506172839,0,0,0.06172839506172839,15.987654320987653,0)" xlink:href="#ar"/><use transform="matrix(0.06172839506172839,0,0,0.06172839506172839,29.50617283950617,0)" xlink:href="#z"/><use transform="matrix(0.06172839506172839,0,0,0.06172839506172839,41.85185185185185,0)" xlink:href="#s"/><use transform="matrix(0.06172839506172839,0,0,0.06172839506172839,55.37037037037037,0)" xlink:href="#s"/><use transform="matrix(0.06172839506172839,0,0,0.06172839506172839,68.88888888888889,0)" xlink:href="#r"/><use transform="matrix(0.06172839506172839,0,0,0.06172839506172839,81.23456790123457,0)" xlink:href="#au"/></g><g id="l"><use transform="matrix(0.05,0,0,0.05,0,0)" xlink:href="#W"/><use transform="matrix(0.05,0,0,0.05,9,0)" xlink:href="#X"/><use transform="matrix(0.05,0,0,0.05,14,0)" xlink:href="#Y"/><use transform="matrix(0.05,0,0,0.05,24,0)" xlink:href="#Z"/><use transform="matrix(0.05,0,0,0.05,34,0)" xlink:href="#ae"/><use transform="matrix(0.05,0,0,0.05,44.300000000000004,0)" xlink:href="#ad"/><use transform="matrix(0.05,0,0,0.05,50.25000000000001,0)" xlink:href="#af"/><use transform="matrix(0.05,0,0,0.05,60.25,0)" xlink:href="#ag"/><use transform="matrix(0.05,0,0,0.05,69.25,0)" xlink:href="#ah"/><use transform="matrix(0.05,0,0,0.05,78.25,0)" xlink:href="#ai"/><use transform="matrix(0.05,0,0,0.05,82.2,0)" xlink:href="#ac"/><use transform="matrix(0.05,0,0,0.05,92.2,0)" xlink:href="#aj"/><use transform="matrix(0.05,0,0,0.05,102.2,0)" xlink:href="#ak"/><use transform="matrix(0.05,0,0,0.05,108.15,0)" xlink:href="#aa"/><use transform="matrix(0.05,0,0,0.05,120.15,0)" xlink:href="#ab"/><use transform="matrix(0.05,0,0,0.05,130.15,0)" xlink:href="#ac"/><use transform="matrix(0.05,0,0,0.05,140.15,0)" xlink:href="#W"/><use transform="matrix(0.05,0,0,0.05,149.15,0)" xlink:href="#Y"/><use transform="matrix(0.05,0,0,0.05,159.15,0)" xlink:href="#ad"/><use transform="matrix(0.05,0,0,0.05,165.1,0)" xlink:href="#al"/><use transform="matrix(0.05,0,0,0.05,170.1,0)" xlink:href="#am"/><use transform="matrix(0.05,0,0,0.05,180.1,0)" xlink:href="#an"/></g><path fill="#3a414a" d="M240 0l2-218c-23 76-54 145-80 218h-23L58-218 59 0H30v-248h44l77 211c21-75 51-140 76-211h43V0h-30" id="av"/><path fill="#3a414a" d="M106-169C34-169 62-67 57 0H25v-261h32l-1 103c12-21 28-36 61-36 89 0 53 116 60 194h-32v-121c2-32-8-49-39-48" id="aw"/><path fill="#3a414a" d="M212-179c-10-28-35-45-73-45-59 0-87 40-87 99 0 60 29 101 89 101 43 0 62-24 78-52l27 14C228-24 195 4 139 4 59 4 22-46 18-125c-6-104 99-153 187-111 19 9 31 26 39 46" id="ax"/><path fill="#3a414a" d="M24 0v-261h32V0H24" id="ay"/><g id="m"><use transform="matrix(0.05,0,0,0.05,0,0)" xlink:href="#ag"/><use transform="matrix(0.05,0,0,0.05,9,0)" xlink:href="#ad"/><use transform="matrix(0.05,0,0,0.05,14.949999999999998,0)" xlink:href="#ab"/><use transform="matrix(0.05,0,0,0.05,24.95,0)" xlink:href="#af"/><use transform="matrix(0.05,0,0,0.05,34.95,0)" xlink:href="#X"/><use transform="matrix(0.05,0,0,0.05,39.95,0)" xlink:href="#ab"/><use transform="matrix(0.05,0,0,0.05,49.95,0)" xlink:href="#av"/><use transform="matrix(0.05,0,0,0.05,64.9,0)" xlink:href="#ab"/><use transform="matrix(0.05,0,0,0.05,74.9,0)" xlink:href="#X"/><use transform="matrix(0.05,0,0,0.05,79.9,0)" xlink:href="#aw"/><use transform="matrix(0.05,0,0,0.05,89.9,0)" xlink:href="#Y"/><use transform="matrix(0.05,0,0,0.05,99.9,0)" xlink:href="#am"/><use transform="matrix(0.05,0,0,0.05,109.9,0)" xlink:href="#ax"/><use transform="matrix(0.05,0,0,0.05,122.85000000000001,0)" xlink:href="#aw"/><use transform="matrix(0.05,0,0,0.05,132.85000000000002,0)" xlink:href="#af"/><use transform="matrix(0.05,0,0,0.05,142.85000000000002,0)" xlink:href="#ac"/><use transform="matrix(0.05,0,0,0.05,152.85000000000002,0)" xlink:href="#ac"/><use transform="matrix(0.05,0,0,0.05,162.85000000000002,0)" xlink:href="#ab"/><use transform="matrix(0.05,0,0,0.05,172.85000000000002,0)" xlink:href="#ay"/><use transform="matrix(0.05,0,0,0.05,176.8,0)" xlink:href="#ak"/><use transform="matrix(0.05,0,0,0.05,182.75,0)" xlink:href="#aa"/><use transform="matrix(0.05,0,0,0.05,194.75,0)" xlink:href="#X"/><use transform="matrix(0.05,0,0,0.05,199.75,0)" xlink:href="#ad"/><use transform="matrix(0.05,0,0,0.05,205.69999999999996,0)" xlink:href="#ai"/><use transform="matrix(0.05,0,0,0.05,209.64999999999998,0)" xlink:href="#ac"/><use transform="matrix(0.05,0,0,0.05,219.64999999999998,0)" xlink:href="#aj"/><use transform="matrix(0.05,0,0,0.05,229.64999999999998,0)" xlink:href="#an"/></g><path fill="#3a414a" d="M233-177c-1 41-23 64-60 70L243 0h-38l-65-103H63V0H30v-248c88 3 205-21 203 71zM63-129c60-2 137 13 137-47 0-61-80-42-137-45v92" id="az"/><path fill="#3a414a" d="M84 4C-5 8 30-112 23-190h32v120c0 31 7 50 39 49 72-2 45-101 50-169h31l1 190h-30c-1-10 1-25-2-33-11 22-28 36-60 37" id="aA"/><g id="n"><use transform="matrix(0.05,0,0,0.05,0,0)" xlink:href="#aa"/><use transform="matrix(0.05,0,0,0.05,12,0)" xlink:href="#ab"/><use transform="matrix(0.05,0,0,0.05,22,0)" xlink:href="#ac"/><use transform="matrix(0.05,0,0,0.05,32,0)" xlink:href="#W"/><use transform="matrix(0.05,0,0,0.05,41,0)" xlink:href="#Y"/><use transform="matrix(0.05,0,0,0.05,51,0)" xlink:href="#ad"/><use transform="matrix(0.05,0,0,0.05,56.95,0)" xlink:href="#az"/><use transform="matrix(0.05,0,0,0.05,69.9,0)" xlink:href="#ab"/><use transform="matrix(0.05,0,0,0.05,79.9,0)" xlink:href="#W"/><use transform="matrix(0.05,0,0,0.05,88.9,0)" xlink:href="#aA"/><use transform="matrix(0.05,0,0,0.05,98.9,0)" xlink:href="#ay"/><use transform="matrix(0.05,0,0,0.05,102.85000000000001,0)" xlink:href="#X"/></g><g id="o"><use transform="matrix(0.05,0,0,0.05,0,0)" xlink:href="#W"/><use transform="matrix(0.05,0,0,0.05,9,0)" xlink:href="#ab"/><use transform="matrix(0.05,0,0,0.05,19,0)" xlink:href="#ac"/><use transform="matrix(0.05,0,0,0.05,29,0)" xlink:href="#am"/><use transform="matrix(0.05,0,0,0.05,39,0)" xlink:href="#ak"/><use transform="matrix(0.05,0,0,0.05,44.95,0)" xlink:href="#aa"/><use transform="matrix(0.05,0,0,0.05,56.95,0)" xlink:href="#ab"/><use transform="matrix(0.05,0,0,0.05,66.95,0)" xlink:href="#ac"/><use transform="matrix(0.05,0,0,0.05,76.95,0)" xlink:href="#W"/><use transform="matrix(0.05,0,0,0.05,85.95,0)" xlink:href="#Y"/><use transform="matrix(0.05,0,0,0.05,95.95,0)" xlink:href="#ad"/><use transform="matrix(0.05,0,0,0.05,101.9,0)" xlink:href="#al"/><use transform="matrix(0.05,0,0,0.05,106.9,0)" xlink:href="#am"/><use transform="matrix(0.05,0,0,0.05,116.9,0)" xlink:href="#an"/></g><g id="p"><use transform="matrix(0.05,0,0,0.05,0,0)" xlink:href="#aa"/><use transform="matrix(0.05,0,0,0.05,12,0)" xlink:href="#ab"/><use transform="matrix(0.05,0,0,0.05,22,0)" xlink:href="#ac"/><use transform="matrix(0.05,0,0,0.05,32,0)" xlink:href="#W"/><use transform="matrix(0.05,0,0,0.05,41,0)" xlink:href="#Y"/><use transform="matrix(0.05,0,0,0.05,51,0)" xlink:href="#ad"/><use transform="matrix(0.05,0,0,0.05,56.95,0)" xlink:href="#ae"/><use transform="matrix(0.05,0,0,0.05,65.9,0)" xlink:href="#af"/><use transform="matrix(0.05,0,0,0.05,75.9,0)" xlink:href="#W"/><use transform="matrix(0.05,0,0,0.05,84.9,0)" xlink:href="#ah"/><use transform="matrix(0.05,0,0,0.05,93.9,0)" xlink:href="#az"/><use transform="matrix(0.05,0,0,0.05,106.85000000000001,0)" xlink:href="#ab"/><use transform="matrix(0.05,0,0,0.05,116.85000000000001,0)" xlink:href="#W"/><use transform="matrix(0.05,0,0,0.05,125.85000000000001,0)" xlink:href="#aA"/><use transform="matrix(0.05,0,0,0.05,135.85000000000002,0)" xlink:href="#ay"/><use transform="matrix(0.05,0,0,0.05,139.8,0)" xlink:href="#X"/></g></defs></g></svg>