<svg xmlns="http://www.w3.org/2000/svg" xmlns:xlink="http://www.w3.org/1999/xlink" xmlns:lucid="lucid" width="2112.39" height="2042"><g transform="translate(-80 -200)" lucid:page-tab-id="0_0"><path d="M535.04 348.5v10m0 10v20.02m0 10v20.02m0 10v20m0 10.02v20m0 10v20.02m0 10v20.02m0 10v20.02m0 10v20m0 10.02v20m0 10v20.02m0 10v20.02m0 10v20.02m0 10v20m0 10.02v20m0 10v20.02m0 10v20.02m0 10v20m0 10.02v20m0 10.02v20m0 10v20.02m0 10v20.02m0 10v20m0 10.02v20m0 10.02v20m0 10v20.02m0 10v20.02m0 10v20m0 10.02v20m0 10v20.03m0 10v20m0 10.02v20m0 10v20m0 10.02v20m0 10v20.03m0 10v20m0 10.02v20m0 10v20.02m0 10v20m0 10v20.02m0 10v20.02m0 10v20.02m0 10v20m0 10.02v20m0 10v20.02m0 10v20.02m0 10v20m0 10.02v20m0 10.02v20m0 10v20.02m0 10v20.02m0 10v20.02m0 10v20m0 10.02v20m0 10v20.02m0 10v20.02m0 10v20m0 10.02v20m0 10v20.03m0 10v20m0 10.02v20m0 10v20.02m0 10v20.02m0 10v10" stroke="#333" fill="none"/><path d="M535.54 348.5h-1v-.5h1z" stroke="#333" stroke-width=".05" fill="#333"/><path d="M535.04 2239.5v.5" stroke="#333" fill="none"/><path d="M516.1 468a8 8 0 0 1 8-8h24a8 8 0 0 1 8 8v1344a8 8 0 0 1-8 8h-24a8 8 0 0 1-8-8z" stroke="#f2f2f2" fill="#ced4db"/><path d="M915.04 348.5v10m0 10v20.02m0 10v20.02m0 10v20m0 10.02v20m0 10v20.02m0 10v20.02m0 10v20.02m0 10v20m0 10.02v20m0 10v20.02m0 10v20.02m0 10v20.02m0 10v20m0 10.02v20m0 10v20.02m0 10v20.02m0 10v20m0 10.02v20m0 10.02v20m0 10v20.02m0 10v20.02m0 10v20m0 10.02v20m0 10.02v20m0 10v20.02m0 10v20.02m0 10v20m0 10.02v20m0 10v20.03m0 10v20m0 10.02v20m0 10v20m0 10.02v20m0 10.02v20m0 10v20.02m0 10v20.02m0 10v20m0 10.02v20m0 10v20.02m0 10v20.02m0 10v20.02m0 10v20m0 10.02v20m0 10v20.02m0 10v20.02m0 10v20.02m0 10v20m0 10.02v20m0 10v20.02m0 10v20.02m0 10v20.02m0 10v20m0 10.02v20m0 10v20.02m0 10v20.02m0 10v20m0 10.02v20m0 10v20.03m0 10v20m0 10.02v20m0 10v20.02m0 10v20.02m0 10v10" stroke="#333" fill="none"/><path d="M915.54 348.5h-1v-.5h1z" stroke="#333" stroke-width=".05" fill="#333"/><path d="M915.04 2239.5v.5" stroke="#333" fill="none"/><path d="M895.04 528a8 8 0 0 1 8-8h24a8 8 0 0 1 8 8v1044a8 8 0 0 1-8 8h-24a8 8 0 0 1-8-8z" stroke="#f2f2f2" fill="#ced4db"/><path d="M1299.5 348.5v10m0 10v20.02m0 10v20.02m0 10v20m0 10.02v20m0 10v20.02m0 10v20.02m0 10v20.02m0 10v20m0 10.02v20m0 10v20.02m0 10v20.02m0 10v20.02m0 10v20m0 10.02v20m0 10v20.02m0 10v20.02m0 10v20m0 10.02v20m0 10.02v20m0 10v20.02m0 10v20.02m0 10v20m0 10.02v20m0 10.02v20m0 10v20.02m0 10v20.02m0 10v20m0 10.02v20m0 10v20.03m0 10v20m0 10.02v20m0 10v20m0 10.02v20m0 10v20.03m0 10v20m0 10.02v20m0 10v20.02m0 10v20m0 10v20.02m0 10v20.02m0 10v20.02m0 10v20m0 10.02v20m0 10v20.02m0 10v20.02m0 10v20m0 10.02v20m0 10.02v20m0 10v20.02m0 10v20.02m0 10v20.02m0 10v20m0 10.02v20m0 10v20.02m0 10v20.02m0 10v20m0 10.02v20m0 10v20.03m0 10v20m0 10.02v20m0 10v20.02m0 10v20.02m0 10v10" stroke="#333" fill="none"/><path d="M1300 348.5h-1v-.5h1z" stroke="#333" stroke-width=".05" fill="#333"/><path d="M1299.5 2239.5v.5" stroke="#333" fill="none"/><path d="M440 228a8 8 0 0 1 8-8h174.08a8 8 0 0 1 8 8v112a8 8 0 0 1-8 8H448a8 8 0 0 1-8-8z" stroke="#000" stroke-opacity="0" fill="#ffaf28"/><use xlink:href="#a" transform="matrix(1,0,0,1,448,228.0000051543709) translate(3.7037037037037095 60.44444444444444)"/><use xlink:href="#b" transform="matrix(1,0,0,1,448,228.0000051543709) translate(96.11111111111111 60.44444444444444)"/><path d="M820 228a8 8 0 0 1 8-8h174.08a8 8 0 0 1 8 8v112a8 8 0 0 1-8 8H828a8 8 0 0 1-8-8z" stroke="#000" stroke-opacity="0" fill="#ffaf28"/><use xlink:href="#c" transform="matrix(1,0,0,1,828,228.00035432234245) translate(1.234567901234584 60.44444444444444)"/><use xlink:href="#d" transform="matrix(1,0,0,1,828,228.00035432234245) translate(82.5925925925926 60.44444444444444)"/><path d="M1204.46 228a8 8 0 0 1 8-8h174.08a8 8 0 0 1 8 8v112a8 8 0 0 1-8 8h-174.08a8 8 0 0 1-8-8z" stroke="#000" stroke-opacity="0" fill="#ffaf28"/><use xlink:href="#c" transform="matrix(1,0,0,1,1212.4624756564717,228) translate(28.333333333333343 60.44444444444444)"/><use xlink:href="#e" transform="matrix(1,0,0,1,1212.4624756564717,228) translate(109.69135802469135 60.44444444444444)"/><path d="M159.75 259.75c0 10.9-8.84 19.75-19.75 19.75-10.9 0-19.75-8.84-19.75-19.75 0-10.9 8.84-19.75 19.75-19.75 10.9 0 19.75 8.84 19.75 19.75z" stroke="#333" fill="#fff"/><path d="M140 279.5v47.3a27.6 27.6 0 0 0 4.28 14.76L180 398m-40-63.2L100 398m0-98.75h80" stroke="#333" fill="none"/><path d="M100 248a8 8 0 0 1 8-8h64a8 8 0 0 1 8 8v164a8 8 0 0 1-8 8h-64a8 8 0 0 1-8-8z" fill="none"/><use xlink:href="#f" transform="matrix(1,0,0,1,20,398) translate(99.28395061728395 14.555555555555555)"/><path d="M140 440.5v10.05m0 10.05v20.1m0 10.05v20.1m0 10.06V541m0 10.06v20.1m0 10.05v20.1m0 10.06v20.1m0 10.06v20.1m0 10.05v20.1m0 10.05v20.1m0 10.06v20.1m0 10.05v20.1m0 10.05v20.1m0 10.05v20.1m0 10.06v20.1m0 10.04v20.1m0 10.05V933m0 10.04v20.1m0 10.06v20.1m0 10.05v20.1m0 10.05v20.1m0 10.05v20.1m0 10.06v20.1m0 10.06v20.1m0 10.05v20.1m0 10.06v20.1m0 10.06v20.1m0 10.05v20.1m0 10.05v20.1m0 10.05v20.1m0 10.06v20.1m0 10.05v20.1m0 10.05v20.1m0 10.05v20.1m0 10.06v20.1m0 10.05v20.1m0 10.04v20.1m0 10.05v20.1m0 10.05v20.1m0 10.05v20.1m0 10.05v20.1m0 10.05v20.1m0 10.06v20.1m0 10.05v20.1m0 10.06v20.1m0 10.05v20.12m0 10.05v20.1m0 10.05v20.1m0 10.05v20.1m0 10.05v20.1m0 10.06v20.1m0 10.05v20.1m0 10.05v20.1m0 10.05v20.1m0 10.06v20.1m0 10.04v20.1m0 10.05v20.1m0 10.04v20.1m0 10.06v20.1m0 10.05v10.05M140 440.5v-.5M140 2219.5v.5M140.5 460h378.6M140.5 460h-.5M501.8 470.18L519.02 460l-17.22-10.18" stroke="#333" fill="none"/><use xlink:href="#g" transform="matrix(1,0,0,1,186.96296296296293,434.66666666666663) translate(0.0049999999999954525 14.222222222222223)"/><use xlink:href="#h" transform="matrix(1,0,0,1,186.96296296296293,434.66666666666663) translate(172.6963580246914 14.222222222222223)"/><path d="M557.1 521h340.23" stroke="#3a414a" fill="none"/><path d="M557.12 521.5h-.5v-1h.5z" stroke="#3a414a" stroke-width=".05" fill="#3a414a"/><path d="M880.04 531.18L897.26 521l-17.22-10.18" stroke="#3a414a" fill="none"/><use xlink:href="#i" transform="matrix(1,0,0,1,567.8304847214079,495.39997405574525) translate(0.0049999999999954525 14.4)"/><use xlink:href="#j" transform="matrix(1,0,0,1,567.8304847214079,495.39997405574525) translate(191.055 14.4)"/><path d="M1588.92 548a8 8 0 0 1 8-8H1771a8 8 0 0 1 8 8v138a8 8 0 0 1-8 8h-174.08a8 8 0 0 1-8-8z" stroke="#000" stroke-opacity="0" fill="#ffaf28"/><use xlink:href="#k" transform="matrix(1,0,0,1,1596.9249119070846,548) translate(15.462962962962962 60.111111111111114)"/><use xlink:href="#l" transform="matrix(1,0,0,1,1596.9249119070846,548) translate(80.83333333333333 60.111111111111114)"/><use xlink:href="#m" transform="matrix(1,0,0,1,1596.9249119070846,548) translate(43.7962962962963 86.77777777777777)"/><path d="M1982.3 228a8 8 0 0 1 8-8h174.1a8 8 0 0 1 8 8v112a8 8 0 0 1-8 8h-174.1a8 8 0 0 1-8-8z" stroke="#000" stroke-opacity="0" fill="#ffaf28"/><use xlink:href="#n" transform="matrix(1,0,0,1,1990.31209019316,228) translate(15.987654320987644 60.44444444444444)"/><path d="M1683.96 694.5v9.97m0 9.98v19.94m0 9.96v19.95m0 9.98v19.95m0 9.97v19.94m0 9.98v19.94m0 9.98v19.94m0 9.97v19.95m0 9.97v9.97" stroke="#333" fill="none"/><path d="M1684.46 694.5h-1v-.5h1z" stroke="#333" stroke-width=".05" fill="#333"/><path d="M1683.96 933.83v3.5M2077.35 348.5v10.06m0 10.06v20.12m0 10.06v20.1m0 10.07v20.12m0 10.05v20.12m0 10.06v20.12m0 10.06v20.12m0 10.06v20.12m0 10.06v20.12m0 10.06v20.12m0 10.06v20.1m0 10.07v20.1m0 10.07v20.12m0 10.05v20.12m0 10.05v20.12m0 10.06v20.12m0 10.06v20.12m0 10.06v20.12m0 10.05v20.12m0 10.06v20.13m0 10.06v20.1m0 10.07v20.12m0 10.04v20.12m0 10.06v20.12m0 10.06v20.12m0 10.06v20.1m0 10.07v20.12m0 10.06v20.12m0 10.06v20.13m0 10.06v20.1m0 10.06v20.12m0 10.06v20.12m0 10.06v20.12m0 10.06v20.1m0 10.07v20.12m0 10.05v20.12m0 10.06v20.12m0 10.06v20.12m0 10.06v20.12m0 10.06v20.12m0 10.06v20.12m0 10.05v20.13m0 10.06v20.1m0 10.07v20.12m0 10.05v20.12m0 10.06v20.1m0 10.07v20.12m0 10.06v20.12m0 10.06v20.12m0 10.05v20.12m0 10.06v20.13m0 10.06v20.1m0 10.07v20.12m0 10.04v20.12m0 10.06v20.12m0 10.06v20.12m0 10.06v20.1m0 10.07v20.12m0 10.06v20.12m0 10.06v20.13m0 10.06v20.1m0 10.06v20.12m0 10.06v10.06" stroke="#333" fill="none"/><path d="M2077.85 348.5h-1v-.5h1z" stroke="#333" stroke-width=".05" fill="#333"/><path d="M2077.35 2219.5v.5" stroke="#333" fill="none"/><path d="M936.04 579.1H1279.1" stroke="#3a414a" fill="none"/><path d="M936.05 579.6h-.5v-1h.5z" stroke="#3a414a" stroke-width=".05" fill="#3a414a"/><path d="M1261.8 589.28l17.22-10.18-17.22-10.18" stroke="#3a414a" fill="none"/><use xlink:href="#i" transform="matrix(1,0,0,1,958.2437621269142,553.5009562067337) translate(0.0049999999999954525 14.4)"/><use xlink:href="#o" transform="matrix(1,0,0,1,958.2437621269142,553.5009562067337) translate(191.055 14.4)"/><path d="M1279.5 588a8 8 0 0 1 8-8h24a8 8 0 0 1 8 8v344a8 8 0 0 1-8 8h-24a8 8 0 0 1-8-8z" stroke="#f2f2f2" fill="#ced4db"/><path d="M1320.5 638H1572.54" stroke="#3a414a" fill="none"/><path d="M1320.5 638.5h-.5v-1h.5z" stroke="#3a414a" stroke-width=".05" fill="#3a414a"/><path d="M1587.3 638l-14.26 4.62v-9.27z" stroke="#3a414a" fill="#3a414a"/><use xlink:href="#p" transform="matrix(1,0,0,1,1336.6624932249902,612.3884613729676) translate(0.0049999999999954525 14.4)"/><path d="M1663.96 768a8 8 0 0 1 8-8h24a8 8 0 0 1 8 8v104a8 8 0 0 1-8 8h-24a8 8 0 0 1-8-8zM2060 1428a8 8 0 0 1 8-8h24a8 8 0 0 1 8 8v84a8 8 0 0 1-8 8h-24a8 8 0 0 1-8-8z" stroke="#f2f2f2" fill="#ced4db"/><path d="M1659.5 880h-10.26m-10.26 0h-20.52m-10.26 0h-20.52m-10.26 0h-20.52m-10.26 0h-20.52m-10.26 0h-20.52m-10.27 0h-20.52m-10.26 0h-20.53m-10.26 0H1403m-10.27 0h-20.52m-10.25 0h-20.52m-10.26 0h-10.26M1659.5 880h.5M1338.2 869.82L1320.98 880l17.22 10.18" stroke="#3a414a" fill="none"/><use xlink:href="#q" transform="matrix(1,0,0,1,1436.075,854.4000000000001) translate(0.005000000000002558 14.4)"/><path d="M1320.5 760h338.6" stroke="#3a414a" fill="none"/><path d="M1320.5 760.5h-.5v-1h.5z" stroke="#3a414a" stroke-width=".05" fill="#3a414a"/><path d="M1641.8 770.18l17.22-10.18-17.22-10.18" stroke="#3a414a" fill="none"/><use xlink:href="#r" transform="matrix(1,0,0,1,1372.5497730960662,734.4000121808061) translate(0.0049999999999954525 14.4)"/><use xlink:href="#o" transform="matrix(1,0,0,1,1372.5497730960662,734.4000121808061) translate(126.905 14.4)"/><path d="M1643.96 908a8 8 0 0 1 8-8h64a8 8 0 0 1 8 8v64a8 8 0 0 1-8 8h-64a8 8 0 0 1-8-8z" fill="none"/><path d="M1651.96 908l64 64m0-64l-64 64" stroke="#3a414a" stroke-width="8" fill="none"/><path d="M1900 1100.5v10.16m0 10.16v20.32m0 10.16v20.3m0 10.17v20.32m0 10.15v20.32m0 10.16v20.32m0 10.16v20.33m0 10.15v10.16M1900 1100.5v-.5M1900 1313.83v3.5" stroke="#333" fill="none"/><path d="M1880 1168a8 8 0 0 1 8-8h24a8 8 0 0 1 8 8v84a8 8 0 0 1-8 8h-24a8 8 0 0 1-8-8z" stroke="#f2f2f2" fill="#ced4db"/><path d="M936.04 1038h847.58" stroke="#3a414a" fill="none"/><path d="M936.05 1038.5h-.5v-1h.5z" stroke="#3a414a" stroke-width=".05" fill="#3a414a"/><path d="M1798.38 1038l-14.27 4.63.02-9.27z" stroke="#3a414a" fill="#3a414a"/><use xlink:href="#s" transform="matrix(1,0,0,1,1319.6493093449299,1012.4000004004727) translate(0.0049999999999954525 14.4)"/><path d="M936.04 1160h927.58" stroke="#3a414a" fill="none"/><path d="M936.05 1160.5h-.5v-1h.5z" stroke="#3a414a" stroke-width=".05" fill="#3a414a"/><path d="M1878.38 1160l-14.27 4.63.02-9.27z" stroke="#3a414a" fill="#3a414a"/><use xlink:href="#t" transform="matrix(1,0,0,1,1360.368717940903,1134.4) translate(0.005000000000002558 14.4)"/><path d="M1879.5 1260h-9.83m-9.83 0h-19.65m-9.84 0h-19.65m-9.82 0h-19.66m-9.83 0h-19.66m-9.83 0h-19.64m-9.83 0h-19.66m-9.83 0h-19.65m-9.84 0h-19.65m-9.82 0h-19.66m-9.82 0h-19.66m-9.83 0h-19.64m-9.83 0h-19.66m-9.82 0h-19.66m-9.84 0h-19.65m-9.82 0h-19.66m-9.82 0h-19.96m-10.13 0h-20.25m-10.13 0h-20.26m-10.13 0h-20.26m-10.13 0h-20.26m-10.13 0h-20.26m-10.14 0h-20.26m-10.13 0h-20.26m-10.12 0h-20.26m-10.13 0h-20.27m-10.13 0h-20.26m-10.13 0h-20.25m-10.13 0h-20.26m-10.13 0h-20.26m-10.13 0h-20.26m-10.13 0h-10.13M1879.5 1260h.5" stroke="#3a414a" fill="none"/><path d="M937.16 1260l14.26-4.63v9.27z" stroke="#3a414a" fill="#3a414a"/><use xlink:href="#u" transform="matrix(1,0,0,1,1378.8187865092677,1234.400001340662) translate(0.004999999999999005 14.4)"/><path d="M1860 1288a8 8 0 0 1 8-8h64a8 8 0 0 1 8 8v64a8 8 0 0 1-8 8h-64a8 8 0 0 1-8-8z" fill="none"/><path d="M1868 1288l64 64m0-64l-64 64" stroke="#3a414a" stroke-width="8" fill="none"/><path d="M936.04 1420h1107.58" stroke="#3a414a" fill="none"/><path d="M936.05 1420.5h-.5v-1h.5z" stroke="#3a414a" stroke-width=".05" fill="#3a414a"/><path d="M2058.38 1420l-14.26 4.63v-9.27z" stroke="#3a414a" fill="#3a414a"/><use xlink:href="#v" transform="matrix(1,0,0,1,1393.9187968014228,1394.4000002987825) translate(0.0049999999999954525 14.4)"/><path d="M2059.5 1520h-9.86m-9.85 0h-19.72m-9.86 0h-19.7m-9.86 0h-19.7m-9.86 0h-19.7m-9.87 0h-19.7m-9.86 0h-19.7m-9.87 0h-19.7m-9.86 0h-19.7m-9.87 0h-19.7m-9.86 0H1754m-9.86 0h-19.7m-9.86 0h-19.7m-9.87 0h-19.7m-9.85 0h-19.7m-9.87 0h-19.7m-9.86 0h-19.7m-9.87 0h-19.7m-9.86 0h-19.72m-9.86 0h-19.95m-10.12 0h-20.2m-10.12 0H1427m-10.1 0h-20.2m-10.12 0h-20.22m-10.1 0h-20.22m-10.1 0h-20.23m-10.1 0h-20.2m-10.12 0h-20.22m-10.1 0h-20.22m-10.1 0h-20.23m-10.1 0h-20.2m-10.12 0h-20.22m-10.1 0h-20.22m-10.1 0h-20.23m-10.1 0h-20.2m-10.12 0h-20.22m-10.1 0h-20.22m-10.1 0H951.9M2059.5 1520h.5" stroke="#3a414a" fill="none"/><path d="M937.16 1520l14.26-4.63v9.27z" stroke="#3a414a" fill="#3a414a"/><use xlink:href="#w" transform="matrix(1,0,0,1,1450.3187958960887,1494.4) translate(0.005000000000002558 14.4)"/><path d="M899.5 1580H890m-9.52 0h-19.02m-9.5 0H832.9m-9.5 0h-19.03m-9.52 0h-19.02m-9.5 0h-19.03m-9.5 0h-19m-9.5 0h-18.97m-9.5 0H661.9m-9.5 0h-18.98m-9.48 0h-18.98m-9.5 0H576.5m-9.5 0h-9.48M899.5 1580h.5M574.8 1569.82L557.6 1580l17.2 10.18" stroke="#3a414a" fill="none"/><use xlink:href="#x" transform="matrix(1,0,0,1,640.9273269604619,1554.4004009339849) translate(0.0049999999999954525 14.4)"/><path d="M519.5 1820h-9.7m-9.72 0h-19.4m-9.72 0h-19.4m-9.72 0h-19.4m-9.72 0H393.3m-9.7 0h-19.42m-9.7 0h-19.42m-9.7 0h-19.42m-9.7 0H276.8m-9.7 0h-19.4m-9.72 0h-19.4m-9.72 0h-19.4m-9.72 0h-19.42m-9.7 0h-9.7M519.5 1820h.5M158.2 1809.82L140.98 1820l17.22 10.18" stroke="#3a414a" fill="none"/><use xlink:href="#x" transform="matrix(1,0,0,1,241.02481273447435,1794.4) translate(0.0049999999999954525 14.4)"/><path d="M895.04 1688a8 8 0 0 1 8-8h24a8 8 0 0 1 8 8v64a8 8 0 0 1-8 8h-24a8 8 0 0 1-8-8z" stroke="#f2f2f2" fill="#ced4db"/><path d="M557.1 1680h322.14" stroke="#3a414a" fill="none"/><path d="M557.12 1680.5h-.5v-1h.5z" stroke="#3a414a" stroke-width=".05" fill="#3a414a"/><path d="M894 1680l-14.26 4.63v-9.27z" stroke="#3a414a" fill="#3a414a"/><use xlink:href="#y" transform="matrix(1,0,0,1,614.265061276002,1654.400266976348) translate(0.0049999999999954525 14.4)"/><path d="M899.5 1760H890m-9.52 0h-19.02m-9.5 0H832.9m-9.5 0h-19.03m-9.52 0h-19.02m-9.5 0h-19.03m-9.5 0H717.95m-10.35 0h-20.7m-10.37 0h-20.7m-10.36 0h-20.7m-10.36 0h-20.7m-10.35 0H573M899.5 1760h.5" stroke="#3a414a" fill="none"/><path d="M558.23 1760l14.26-4.63v9.27z" stroke="#3a414a" fill="#3a414a"/><g><use xlink:href="#u" transform="matrix(1,0,0,1,699.3555493743811,1734.4000043954013) translate(0.004999999999999005 14.4)"/></g><path d="M1279.5 940h-9.54m-9.54 0h-19.08m-9.54 0h-19.08m-9.55 0h-19.08m-9.55 0h-19.08m-9.54 0h-19.08m-9.54 0H1098.26m-9.52 0h-19.03m-9.52 0h-19.04m-9.5 0h-19.05m-9.53 0h-19.03m-9.52 0h-19.04m-9.5 0h-9.53M1279.5 940h.5M953.74 929.82L936.52 940l17.22 10.18" stroke="#3a414a" fill="none"/><g><use xlink:href="#q" transform="matrix(1,0,0,1,1053.8439998922167,914.3999892326693) translate(0.005000000000002558 14.4)"/></g><path d="M1800 982a8 8 0 0 1 8-8h174.08a8 8 0 0 1 8 8v112a8 8 0 0 1-8 8H1808a8 8 0 0 1-8-8z" stroke="#000" stroke-opacity="0" fill="#ffaf28"/><g><use xlink:href="#z" transform="matrix(1,0,0,1,1808,982.0000004004726) translate(10.524691358024697 60.44444444444444)"/><use xlink:href="#A" transform="matrix(1,0,0,1,1808,982.0000004004726) translate(77.0679012345679 60.44444444444444)"/></g><defs><path fill="#333" d="M178-136c88 48 22 151-73 140C49-3 12-15 4-64l51-9c1 50 111 53 115 3-16-63-132-20-133-112 0-93 190-91 199-10l-50 12c-4-41-93-50-97-4 7 38 59 32 89 48" id="B"/><path fill="#333" d="M114-194c63-2 87 48 72 110H63c-3 28 1 55 31 54 21-1 32-13 37-29l44 13C160-14 137 4 91 4 41 4 11-22 11-73c0-71 33-119 103-121zm30 77c14-47-50-61-67-22-3 6-6 13-8 22h75" id="C"/><path fill="#333" d="M151-194c95 0 34 128 28 194h-49l25-134c0-29-45-25-59-9C67-111 69-48 56 0H6l36-190h47l-4 32c15-20 33-36 66-36" id="D"/><path fill="#333" d="M144-137c-1-29-70-35-71-2 16 41 103 10 103 80C176 9 79 16 32-9 18-17 9-31 4-48l44-6c3 32 80 36 82 1-15-42-103-11-103-82 0-77 157-79 161-8" id="E"/><path fill="#333" d="M50-224l7-37h49l-7 37H50zM6 0l37-190h49L55 0H6" id="F"/><path fill="#333" d="M45-171c29-32 103-29 114 14 2-11 5-23 8-33h47L176-2c-3 70-92 96-155 64C9 56 1 42-1 25l50-5c2 28 48 27 63 11 13-13 20-45 21-66-13 20-30 35-62 36-87 3-60-134-26-172zM94-35c41-3 55-43 55-86 0-24-12-39-35-39-43 0-51 48-51 90 0 22 9 37 31 35" id="G"/><g id="a"><use transform="matrix(0.06172839506172839,0,0,0.06172839506172839,0,0)" xlink:href="#B"/><use transform="matrix(0.06172839506172839,0,0,0.06172839506172839,14.814814814814813,0)" xlink:href="#C"/><use transform="matrix(0.06172839506172839,0,0,0.06172839506172839,27.160493827160494,0)" xlink:href="#D"/><use transform="matrix(0.06172839506172839,0,0,0.06172839506172839,40.67901234567901,0)" xlink:href="#E"/><use transform="matrix(0.06172839506172839,0,0,0.06172839506172839,53.02469135802469,0)" xlink:href="#F"/><use transform="matrix(0.06172839506172839,0,0,0.06172839506172839,59.19753086419753,0)" xlink:href="#D"/><use transform="matrix(0.06172839506172839,0,0,0.06172839506172839,72.71604938271605,0)" xlink:href="#G"/></g><path fill="#333" d="M6 0l48-248h52L66-40h133l-8 40H6" id="H"/><path fill="#333" d="M87-160c15-17 32-34 63-34 99 1 59 172-1 192-36 12-78 0-87-29L54 0H6l52-261h49zm71 38c0-24-5-37-29-37-46 0-55 46-57 89-1 25 12 40 35 40 44 0 51-50 51-92" id="I"/><path fill="#333" d="M84-151c13-25 34-51 72-40l-8 41C67-170 71-64 56 0H6l36-190h47" id="J"/><path fill="#333" d="M166-52c-4 17 5 29 24 23l-3 27c-30 11-74 1-67-34C105-15 91 4 56 4 23 4 3-15 2-49c0-64 63-67 128-67 10-22 3-53-29-45-13 3-22 10-25 24l-46-5c5-64 156-77 153 0-1 33-11 60-17 90zM97-88c-44-9-64 57-19 57 31 0 42-28 47-57H97" id="K"/><path fill="#333" d="M100 10C77 47 50 87-15 72l7-35c37 9 51-18 65-41L20-190h51L89-44l73-146h53" id="L"/><g id="b"><use transform="matrix(0.06172839506172839,0,0,0.06172839506172839,0,0)" xlink:href="#H"/><use transform="matrix(0.06172839506172839,0,0,0.06172839506172839,13.518518518518517,0)" xlink:href="#F"/><use transform="matrix(0.06172839506172839,0,0,0.06172839506172839,19.691358024691358,0)" xlink:href="#I"/><use transform="matrix(0.06172839506172839,0,0,0.06172839506172839,33.20987654320987,0)" xlink:href="#J"/><use transform="matrix(0.06172839506172839,0,0,0.06172839506172839,41.85185185185185,0)" xlink:href="#K"/><use transform="matrix(0.06172839506172839,0,0,0.06172839506172839,54.197530864197525,0)" xlink:href="#J"/><use transform="matrix(0.06172839506172839,0,0,0.06172839506172839,62.8395061728395,0)" xlink:href="#L"/></g><path fill="#333" d="M124-194c51 0 84 22 84 74C207-44 167 4 94 4 43 4 11-23 11-74c0-74 41-120 113-120zM99-30c46 0 58-42 58-86 0-27-11-44-37-44-44 0-55 40-57 84-1 27 10 45 36 46" id="M"/><g id="c"><use transform="matrix(0.06172839506172839,0,0,0.06172839506172839,0,0)" xlink:href="#B"/><use transform="matrix(0.06172839506172839,0,0,0.06172839506172839,14.814814814814813,0)" xlink:href="#C"/><use transform="matrix(0.06172839506172839,0,0,0.06172839506172839,27.160493827160494,0)" xlink:href="#D"/><use transform="matrix(0.06172839506172839,0,0,0.06172839506172839,40.67901234567901,0)" xlink:href="#E"/><use transform="matrix(0.06172839506172839,0,0,0.06172839506172839,53.02469135802469,0)" xlink:href="#M"/><use transform="matrix(0.06172839506172839,0,0,0.06172839506172839,66.5432098765432,0)" xlink:href="#J"/></g><path fill="#333" d="M212 0l43-212L151 0h-37L90-212C82-137 65-70 52 0H6l48-248h70l20 187 93-187h69L258 0h-46" id="N"/><g id="d"><use transform="matrix(0.06172839506172839,0,0,0.06172839506172839,0,0)" xlink:href="#N"/><use transform="matrix(0.06172839506172839,0,0,0.06172839506172839,18.456790123456788,0)" xlink:href="#K"/><use transform="matrix(0.06172839506172839,0,0,0.06172839506172839,30.80246913580247,0)" xlink:href="#D"/><use transform="matrix(0.06172839506172839,0,0,0.06172839506172839,44.32098765432099,0)" xlink:href="#K"/><use transform="matrix(0.06172839506172839,0,0,0.06172839506172839,56.666666666666664,0)" xlink:href="#G"/><use transform="matrix(0.06172839506172839,0,0,0.06172839506172839,70.18518518518518,0)" xlink:href="#C"/><use transform="matrix(0.06172839506172839,0,0,0.06172839506172839,82.53086419753086,0)" xlink:href="#J"/></g><path fill="#333" d="M183 0l-10-63H79L44 0H-7l138-248h61L234 0h-51zm-14-102l-15-108c-16 38-36 73-55 108h70" id="O"/><path fill="#333" d="M241-173c-1 82-78 91-166 86L58 0H6l48-248c87 0 188-12 187 75zm-53 2c0-43-48-36-90-36l-15 80c50 0 105 7 105-44" id="P"/><path fill="#333" d="M6 0l48-248h52L58 0H6" id="Q"/><g id="e"><use transform="matrix(0.06172839506172839,0,0,0.06172839506172839,0,0)" xlink:href="#O"/><use transform="matrix(0.06172839506172839,0,0,0.06172839506172839,15.987654320987653,0)" xlink:href="#P"/><use transform="matrix(0.06172839506172839,0,0,0.06172839506172839,30.80246913580247,0)" xlink:href="#Q"/></g><path fill="#333" d="M187 0l-14-72H61L19 0h-37l149-248h38L221 0h-34zm-19-99l-22-123L76-99h92" id="R"/><path fill="#333" d="M44-68c0 29 11 47 38 47 30 0 42-19 51-41l28 9C148-21 126 4 82 4 31 4 10-29 12-85c3-77 74-140 146-93 12 8 15 23 18 40l-31 5c-1-22-13-36-36-36-52 0-65 49-65 101" id="S"/><path fill="#333" d="M51-54c-9 22 5 41 31 30L79-1C43 14 10-4 19-52l22-115H19l5-23h22l19-43h21l-9 43h35l-4 23H73" id="T"/><path fill="#333" d="M30-147c31-64 166-65 159 27C183-49 158 1 86 4 9 8 1-88 30-147zM88-20c53 0 68-48 68-100 0-31-11-51-44-50-52 1-68 46-68 97 0 32 13 53 44 53" id="U"/><path fill="#333" d="M66-151c12-25 30-51 66-40l-6 26C45-176 58-65 38 0H6l36-190h30" id="V"/><g id="f"><use transform="matrix(0.04938271604938272,0,0,0.04938271604938272,0,0)" xlink:href="#R"/><use transform="matrix(0.04938271604938272,0,0,0.04938271604938272,11.851851851851853,0)" xlink:href="#S"/><use transform="matrix(0.04938271604938272,0,0,0.04938271604938272,20.74074074074074,0)" xlink:href="#T"/><use transform="matrix(0.04938271604938272,0,0,0.04938271604938272,25.679012345679016,0)" xlink:href="#U"/><use transform="matrix(0.04938271604938272,0,0,0.04938271604938272,35.55555555555556,0)" xlink:href="#V"/></g><path fill="#333" d="M165-48c-4 18 1 34 23 27l-3 20c-29 8-62 0-52-35h-2C116-14 99 4 63 4 30 4 8-16 8-49c0-68 71-67 138-67 10-26 0-56-31-54-26 1-42 9-47 31l-32-5c8-67 160-71 144 15-5 28-9 54-15 81zM42-50c3 52 80 24 89-6 7-12 7-24 11-38-47 1-103-4-100 44" id="W"/><path fill="#333" d="M133-28C103 26-5 8 13-77c13-62 24-115 90-117 29-1 46 15 56 35l19-102h32L160 0h-30zM45-64c-2 27 10 43 35 43 54-1 69-50 69-103 0-29-15-46-42-46-53-1-58 58-62 106" id="X"/><path fill="#333" d="M194-120c59 52 2 134-86 124-53-6-90-18-98-63l31-7c8 30 29 43 70 43 46 0 84-17 71-62-32-43-135-20-137-98-3-89 178-90 191-16l-30 9c-8-48-127-53-127 5 0 53 81 35 115 65" id="Y"/><path fill="#333" d="M111-194c62-3 86 47 72 106H45c-7 38 6 69 45 68 27-1 43-14 53-32l24 11C152-15 129 4 87 4 38 3 12-23 12-71c0-70 32-119 99-123zm44 81c14-66-71-72-95-28-4 8-8 17-11 28h106" id="Z"/><path fill="#333" d="M67-158c22-48 132-52 116 29L158 0h-32l25-140c3-38-53-32-70-12C52-117 51-52 38 0H6l36-190h30" id="aa"/><path fill="#333" d="M55-144c13 50 104 24 104 88C159 21 15 23 1-39l26-10c6 40 102 42 102-4-13-50-104-23-104-87 0-71 143-71 148-8l-29 4c-5-35-85-37-89 0" id="ab"/><path fill="#333" d="M17-49c1-102 45-165 103-212h30C92-210 49-145 49-46 49 4 63 43 85 75H54C30 43 18 2 17-49" id="ac"/><path fill="#333" d="M14 0l48-248h34L48 0H14" id="ad"/><path fill="#333" d="M58-38C53-5 46 26 28 46H7C19 32 27 18 32 0H17l7-38h34" id="ae"/><g id="g"><use transform="matrix(0.04938271604938272,0,0,0.04938271604938272,0,0)" xlink:href="#W"/><use transform="matrix(0.04938271604938272,0,0,0.04938271604938272,9.876543209876544,0)" xlink:href="#X"/><use transform="matrix(0.04938271604938272,0,0,0.04938271604938272,19.75308641975309,0)" xlink:href="#X"/><use transform="matrix(0.04938271604938272,0,0,0.04938271604938272,29.629629629629633,0)" xlink:href="#Y"/><use transform="matrix(0.04938271604938272,0,0,0.04938271604938272,41.48148148148149,0)" xlink:href="#Z"/><use transform="matrix(0.04938271604938272,0,0,0.04938271604938272,51.35802469135803,0)" xlink:href="#aa"/><use transform="matrix(0.04938271604938272,0,0,0.04938271604938272,61.23456790123457,0)" xlink:href="#ab"/><use transform="matrix(0.04938271604938272,0,0,0.04938271604938272,70.12345679012347,0)" xlink:href="#U"/><use transform="matrix(0.04938271604938272,0,0,0.04938271604938272,80.00000000000001,0)" xlink:href="#V"/><use transform="matrix(0.04938271604938272,0,0,0.04938271604938272,85.87654320987656,0)" xlink:href="#ac"/><use transform="matrix(0.04938271604938272,0,0,0.04938271604938272,91.7530864197531,0)" xlink:href="#Y"/><use transform="matrix(0.04938271604938272,0,0,0.04938271604938272,103.60493827160495,0)" xlink:href="#Z"/><use transform="matrix(0.04938271604938272,0,0,0.04938271604938272,113.4814814814815,0)" xlink:href="#aa"/><use transform="matrix(0.04938271604938272,0,0,0.04938271604938272,123.35802469135804,0)" xlink:href="#ab"/><use transform="matrix(0.04938271604938272,0,0,0.04938271604938272,132.24691358024694,0)" xlink:href="#U"/><use transform="matrix(0.04938271604938272,0,0,0.04938271604938272,142.1234567901235,0)" xlink:href="#V"/><use transform="matrix(0.04938271604938272,0,0,0.04938271604938272,148.00000000000003,0)" xlink:href="#ad"/><use transform="matrix(0.04938271604938272,0,0,0.04938271604938272,152.9382716049383,0)" xlink:href="#X"/><use transform="matrix(0.04938271604938272,0,0,0.04938271604938272,162.81481481481484,0)" xlink:href="#ae"/></g><path fill="#333" d="M125-24c46 0 70-25 89-51l25 16C214-24 183 4 123 4 8 4-5-146 60-208c32-50 158-61 191-5 5 7 9 14 11 22l-32 10c-9-28-33-43-69-43-74 0-108 51-108 125 0 46 24 75 72 75" id="af"/><path fill="#333" d="M76-167L44 0H12l33-167H18l4-23h27c3-47 25-81 82-69l-4 24c-35-8-44 15-46 45h37l-5 23H76" id="ag"/><path fill="#333" d="M50-231l6-30h32l-6 30H50zM6 0l37-190h31L37 0H6" id="ah"/><path fill="#333" d="M103-194c29 0 47 14 56 36 2-11 5-23 8-32h30L160-5C157 61 82 97 21 62 9 55 4 45 1 30l28-7c7 42 83 31 92-3 4-16 9-38 13-55-13 20-29 36-62 36-40 0-60-25-60-64 0-71 23-131 91-131zm4 24c-53 0-58 54-61 104-2 27 10 44 36 44 49 0 65-50 67-102 1-29-15-46-42-46" id="ai"/><path fill="#333" d="M98-137C97-35 54 29-4 75h-31C23 23 67-41 67-140c0-50-15-89-37-121h31c24 32 36 73 37 124" id="aj"/><g id="h"><use transform="matrix(0.04938271604938272,0,0,0.04938271604938272,0,0)" xlink:href="#Y"/><use transform="matrix(0.04938271604938272,0,0,0.04938271604938272,11.851851851851853,0)" xlink:href="#Z"/><use transform="matrix(0.04938271604938272,0,0,0.04938271604938272,21.7283950617284,0)" xlink:href="#aa"/><use transform="matrix(0.04938271604938272,0,0,0.04938271604938272,31.60493827160494,0)" xlink:href="#ab"/><use transform="matrix(0.04938271604938272,0,0,0.04938271604938272,40.49382716049384,0)" xlink:href="#U"/><use transform="matrix(0.04938271604938272,0,0,0.04938271604938272,50.37037037037038,0)" xlink:href="#V"/><use transform="matrix(0.04938271604938272,0,0,0.04938271604938272,56.24691358024693,0)" xlink:href="#af"/><use transform="matrix(0.04938271604938272,0,0,0.04938271604938272,69.03703703703705,0)" xlink:href="#U"/><use transform="matrix(0.04938271604938272,0,0,0.04938271604938272,78.9135802469136,0)" xlink:href="#aa"/><use transform="matrix(0.04938271604938272,0,0,0.04938271604938272,88.79012345679014,0)" xlink:href="#ag"/><use transform="matrix(0.04938271604938272,0,0,0.04938271604938272,93.7283950617284,0)" xlink:href="#ah"/><use transform="matrix(0.04938271604938272,0,0,0.04938271604938272,97.62962962962965,0)" xlink:href="#ai"/><use transform="matrix(0.04938271604938272,0,0,0.04938271604938272,107.50617283950618,0)" xlink:href="#aj"/></g><path fill="#3a414a" d="M135-143c-3-34-86-38-87 0 15 53 115 12 119 90S17 21 10-45l28-5c4 36 97 45 98 0-10-56-113-15-118-90-4-57 82-63 122-42 12 7 21 19 24 35" id="ak"/><path fill="#3a414a" d="M59-47c-2 24 18 29 38 22v24C64 9 27 4 27-40v-127H5v-23h24l9-43h21v43h35v23H59v120" id="al"/><path fill="#3a414a" d="M141-36C126-15 110 5 73 4 37 3 15-17 15-53c-1-64 63-63 125-63 3-35-9-54-41-54-24 1-41 7-42 31l-33-3c5-37 33-52 76-52 45 0 72 20 72 64v82c-1 20 7 32 28 27v20c-31 9-61-2-59-35zM48-53c0 20 12 33 32 33 41-3 63-29 60-74-43 2-92-5-92 41" id="am"/><path fill="#3a414a" d="M114-163C36-179 61-72 57 0H25l-1-190h30c1 12-1 29 2 39 6-27 23-49 58-41v29" id="an"/><path fill="#3a414a" d="M127-220V0H93v-220H8v-28h204v28h-85" id="ao"/><path fill="#3a414a" d="M96-169c-40 0-48 33-48 73s9 75 48 75c24 0 41-14 43-38l32 2c-6 37-31 61-74 61-59 0-76-41-82-99-10-93 101-131 147-64 4 7 5 14 7 22l-32 3c-4-21-16-35-41-35" id="ap"/><path fill="#3a414a" d="M143 0L79-87 56-68V0H24v-261h32v163l83-92h37l-77 82L181 0h-38" id="aq"/><path fill="#3a414a" d="M24-231v-30h32v30H24zM24 0v-190h32V0H24" id="ar"/><path fill="#3a414a" d="M117-194c89-4 53 116 60 194h-32v-121c0-31-8-49-39-48C34-167 62-67 57 0H25l-1-190h30c1 10-1 24 2 32 11-22 29-35 61-36" id="as"/><path fill="#3a414a" d="M177-190C167-65 218 103 67 71c-23-6-38-20-44-43l32-5c15 47 100 32 89-28v-30C133-14 115 1 83 1 29 1 15-40 15-95c0-56 16-97 71-98 29-1 48 16 59 35 1-10 0-23 2-32h30zM94-22c36 0 50-32 50-73 0-42-14-75-50-75-39 0-46 34-46 75s6 73 46 73" id="at"/><path fill="#3a414a" d="M87 75C49 33 22-17 22-94c0-76 28-126 65-167h31c-38 41-64 92-64 168S80 34 118 75H87" id="au"/><path fill="#3a414a" d="M185-189c-5-48-123-54-124 2 14 75 158 14 163 119 3 78-121 87-175 55-17-10-28-26-33-46l33-7c5 56 141 63 141-1 0-78-155-14-162-118-5-82 145-84 179-34 5 7 8 16 11 25" id="av"/><path fill="#3a414a" d="M100-194c63 0 86 42 84 106H49c0 40 14 67 53 68 26 1 43-12 49-29l28 8c-11 28-37 45-77 45C44 4 14-33 15-96c1-61 26-98 85-98zm52 81c6-60-76-77-97-28-3 7-6 17-6 28h103" id="aw"/><path fill="#3a414a" d="M100-194c62-1 85 37 85 99 1 63-27 99-86 99S16-35 15-95c0-66 28-99 85-99zM99-20c44 1 53-31 53-75 0-43-8-75-51-75s-53 32-53 75 10 74 51 75" id="ax"/><path fill="#3a414a" d="M33 0v-248h34V0H33" id="ay"/><path fill="#3a414a" d="M85-194c31 0 48 13 60 33l-1-100h32l1 261h-30c-2-10 0-23-3-31C134-8 116 4 85 4 32 4 16-35 15-94c0-66 23-100 70-100zm9 24c-40 0-46 34-46 75 0 40 6 74 45 74 42 0 51-32 51-76 0-42-9-74-50-73" id="az"/><path fill="#3a414a" d="M68-38c1 34 0 65-14 84H32c9-13 17-26 17-46H33v-38h35" id="aA"/><g id="i"><use transform="matrix(0.05,0,0,0.05,0,0)" xlink:href="#ak"/><use transform="matrix(0.05,0,0,0.05,9,0)" xlink:href="#al"/><use transform="matrix(0.05,0,0,0.05,14,0)" xlink:href="#am"/><use transform="matrix(0.05,0,0,0.05,24,0)" xlink:href="#an"/><use transform="matrix(0.05,0,0,0.05,29.950000000000003,0)" xlink:href="#al"/><use transform="matrix(0.05,0,0,0.05,34.95,0)" xlink:href="#ao"/><use transform="matrix(0.05,0,0,0.05,45.25000000000001,0)" xlink:href="#an"/><use transform="matrix(0.05,0,0,0.05,51.20000000000002,0)" xlink:href="#am"/><use transform="matrix(0.05,0,0,0.05,61.20000000000002,0)" xlink:href="#ap"/><use transform="matrix(0.05,0,0,0.05,70.20000000000002,0)" xlink:href="#aq"/><use transform="matrix(0.05,0,0,0.05,79.20000000000002,0)" xlink:href="#ar"/><use transform="matrix(0.05,0,0,0.05,83.15000000000002,0)" xlink:href="#as"/><use transform="matrix(0.05,0,0,0.05,93.15000000000002,0)" xlink:href="#at"/><use transform="matrix(0.05,0,0,0.05,103.15000000000003,0)" xlink:href="#au"/><use transform="matrix(0.05,0,0,0.05,109.10000000000002,0)" xlink:href="#av"/><use transform="matrix(0.05,0,0,0.05,121.10000000000002,0)" xlink:href="#aw"/><use transform="matrix(0.05,0,0,0.05,131.10000000000002,0)" xlink:href="#as"/><use transform="matrix(0.05,0,0,0.05,141.10000000000002,0)" xlink:href="#ak"/><use transform="matrix(0.05,0,0,0.05,150.10000000000002,0)" xlink:href="#ax"/><use transform="matrix(0.05,0,0,0.05,160.10000000000002,0)" xlink:href="#an"/><use transform="matrix(0.05,0,0,0.05,166.05,0)" xlink:href="#ay"/><use transform="matrix(0.05,0,0,0.05,171.05,0)" xlink:href="#az"/><use transform="matrix(0.05,0,0,0.05,181.05,0)" xlink:href="#aA"/></g><path fill="#3a414a" d="M212-179c-10-28-35-45-73-45-59 0-87 40-87 99 0 60 29 101 89 101 43 0 62-24 78-52l27 14C228-24 195 4 139 4 59 4 22-46 18-125c-6-104 99-153 187-111 19 9 31 26 39 46" id="aB"/><path fill="#3a414a" d="M101-234c-31-9-42 10-38 44h38v23H63V0H32v-167H5v-23h27c-7-52 17-82 69-68v24" id="aC"/><path fill="#3a414a" d="M33-261c38 41 65 92 65 168S71 34 33 75H2C39 34 66-17 66-93S39-220 2-261h31" id="aD"/><g id="j"><use transform="matrix(0.05,0,0,0.05,0,0)" xlink:href="#av"/><use transform="matrix(0.05,0,0,0.05,12,0)" xlink:href="#aw"/><use transform="matrix(0.05,0,0,0.05,22,0)" xlink:href="#as"/><use transform="matrix(0.05,0,0,0.05,32,0)" xlink:href="#ak"/><use transform="matrix(0.05,0,0,0.05,41,0)" xlink:href="#ax"/><use transform="matrix(0.05,0,0,0.05,51,0)" xlink:href="#an"/><use transform="matrix(0.05,0,0,0.05,56.95,0)" xlink:href="#aB"/><use transform="matrix(0.05,0,0,0.05,69.9,0)" xlink:href="#ax"/><use transform="matrix(0.05,0,0,0.05,79.9,0)" xlink:href="#as"/><use transform="matrix(0.05,0,0,0.05,89.9,0)" xlink:href="#aC"/><use transform="matrix(0.05,0,0,0.05,94.9,0)" xlink:href="#ar"/><use transform="matrix(0.05,0,0,0.05,98.85000000000001,0)" xlink:href="#at"/><use transform="matrix(0.05,0,0,0.05,108.85000000000001,0)" xlink:href="#aD"/></g><path fill="#333" d="M240-76C239 26 104-5 6 0l48-248c79 4 193-21 193 58 0 38-25 53-57 60 29 5 49 21 50 54zm-45-106c0-40-58-24-96-27l-12 61c45-3 108 12 108-34zm-7 105c0-44-65-31-109-33L66-38c51-3 122 14 122-39" id="aE"/><path fill="#333" d="M67-101c-8 29-7 73 27 71 23-2 32-16 39-37l48 9C170-19 141 4 91 4 36 4 7-28 12-86c6-75 61-124 140-103 26 7 40 29 43 59l-50 4c-1-20-9-34-29-34-35 0-41 29-49 59" id="aF"/><g id="k"><use transform="matrix(0.06172839506172839,0,0,0.06172839506172839,0,0)" xlink:href="#aE"/><use transform="matrix(0.06172839506172839,0,0,0.06172839506172839,15.987654320987653,0)" xlink:href="#K"/><use transform="matrix(0.06172839506172839,0,0,0.06172839506172839,28.333333333333332,0)" xlink:href="#E"/><use transform="matrix(0.06172839506172839,0,0,0.06172839506172839,40.67901234567901,0)" xlink:href="#F"/><use transform="matrix(0.06172839506172839,0,0,0.06172839506172839,46.851851851851855,0)" xlink:href="#aF"/></g><path fill="#333" d="M72-63c-8 23 5 39 32 30L98-1C54 14 12-6 23-64l18-93H15l7-33h28l24-45h31l-8 45h35l-6 33H90" id="aG"/><path fill="#333" d="M150-105c8-23 8-54-22-51-68 7-54 98-72 156H6l50-261h50L85-158c15-20 33-36 66-36 95 0 34 128 28 194h-49" id="aH"/><path fill="#333" d="M132-28C118-9 101 4 69 4 30 4 10-23 10-62c0-70 24-129 92-132 31-1 47 14 56 35l19-102h49L179 0h-49zM62-69c0 22 7 39 29 39 45-2 54-45 57-90 2-27-10-40-33-40-44 0-53 48-53 91" id="aI"/><g id="l"><use transform="matrix(0.06172839506172839,0,0,0.06172839506172839,0,0)" xlink:href="#N"/><use transform="matrix(0.06172839506172839,0,0,0.06172839506172839,18.456790123456788,0)" xlink:href="#C"/><use transform="matrix(0.06172839506172839,0,0,0.06172839506172839,30.80246913580247,0)" xlink:href="#aG"/><use transform="matrix(0.06172839506172839,0,0,0.06172839506172839,38.148148148148145,0)" xlink:href="#aH"/><use transform="matrix(0.06172839506172839,0,0,0.06172839506172839,51.666666666666664,0)" xlink:href="#M"/><use transform="matrix(0.06172839506172839,0,0,0.06172839506172839,65.18518518518518,0)" xlink:href="#aI"/></g><path fill="#333" d="M161-211c-63 0-91 46-91 110 0 39 17 65 58 64 38-1 60-20 74-45l40 20C220-23 184 0 125 4 9 13-10-144 57-208c33-50 166-62 196-1 4 8 9 18 11 27l-48 12c-6-24-25-41-55-41" id="aJ"/><path fill="#333" d="M6 0l51-261h49L55 0H6" id="aK"/><g id="m"><use transform="matrix(0.06172839506172839,0,0,0.06172839506172839,0,0)" xlink:href="#aJ"/><use transform="matrix(0.06172839506172839,0,0,0.06172839506172839,15.987654320987653,0)" xlink:href="#aH"/><use transform="matrix(0.06172839506172839,0,0,0.06172839506172839,29.50617283950617,0)" xlink:href="#K"/><use transform="matrix(0.06172839506172839,0,0,0.06172839506172839,41.85185185185185,0)" xlink:href="#D"/><use transform="matrix(0.06172839506172839,0,0,0.06172839506172839,55.37037037037037,0)" xlink:href="#D"/><use transform="matrix(0.06172839506172839,0,0,0.06172839506172839,68.88888888888889,0)" xlink:href="#C"/><use transform="matrix(0.06172839506172839,0,0,0.06172839506172839,81.23456790123457,0)" xlink:href="#aK"/></g><path fill="#333" d="M156-122c2-23-7-37-28-37-47 0-58 44-58 89 0 24 12 40 36 40 43 0 47-49 50-92zM-8 75l50-265h48c0 10-3 24-3 30 22-50 127-45 121 29-6 73-21 135-92 135-29 0-46-14-55-35L41 75H-8" id="aL"/><g id="n"><use transform="matrix(0.06172839506172839,0,0,0.06172839506172839,0,0)" xlink:href="#P"/><use transform="matrix(0.06172839506172839,0,0,0.06172839506172839,14.814814814814813,0)" xlink:href="#J"/><use transform="matrix(0.06172839506172839,0,0,0.06172839506172839,23.456790123456788,0)" xlink:href="#C"/><use transform="matrix(0.06172839506172839,0,0,0.06172839506172839,35.80246913580247,0)" xlink:href="#aL"/><use transform="matrix(0.06172839506172839,0,0,0.06172839506172839,49.32098765432099,0)" xlink:href="#J"/><use transform="matrix(0.06172839506172839,0,0,0.06172839506172839,57.96296296296296,0)" xlink:href="#M"/><use transform="matrix(0.06172839506172839,0,0,0.06172839506172839,71.48148148148148,0)" xlink:href="#aF"/><use transform="matrix(0.06172839506172839,0,0,0.06172839506172839,83.82716049382717,0)" xlink:href="#C"/><use transform="matrix(0.06172839506172839,0,0,0.06172839506172839,96.17283950617285,0)" xlink:href="#E"/><use transform="matrix(0.06172839506172839,0,0,0.06172839506172839,108.51851851851853,0)" xlink:href="#E"/><use transform="matrix(0.06172839506172839,0,0,0.06172839506172839,120.86419753086422,0)" xlink:href="#M"/><use transform="matrix(0.06172839506172839,0,0,0.06172839506172839,134.38271604938274,0)" xlink:href="#J"/></g><path fill="#3a414a" d="M210-169c-67 3-38 105-44 169h-31v-121c0-29-5-50-35-48C34-165 62-65 56 0H25l-1-190h30c1 10-1 24 2 32 10-44 99-50 107 0 11-21 27-35 58-36 85-2 47 119 55 194h-31v-121c0-29-5-49-35-48" id="aM"/><path fill="#3a414a" d="M108 0H70L1-190h34L89-25l56-165h34" id="aN"/><path fill="#3a414a" d="M24 0v-261h32V0H24" id="aO"/><g id="o"><use transform="matrix(0.05,0,0,0.05,0,0)" xlink:href="#ao"/><use transform="matrix(0.05,0,0,0.05,10.3,0)" xlink:href="#ar"/><use transform="matrix(0.05,0,0,0.05,14.25,0)" xlink:href="#aM"/><use transform="matrix(0.05,0,0,0.05,29.200000000000003,0)" xlink:href="#aw"/><use transform="matrix(0.05,0,0,0.05,39.2,0)" xlink:href="#ay"/><use transform="matrix(0.05,0,0,0.05,44.2,0)" xlink:href="#as"/><use transform="matrix(0.05,0,0,0.05,54.2,0)" xlink:href="#al"/><use transform="matrix(0.05,0,0,0.05,59.2,0)" xlink:href="#aw"/><use transform="matrix(0.05,0,0,0.05,69.2,0)" xlink:href="#an"/><use transform="matrix(0.05,0,0,0.05,75.15,0)" xlink:href="#aN"/><use transform="matrix(0.05,0,0,0.05,84.15,0)" xlink:href="#am"/><use transform="matrix(0.05,0,0,0.05,94.15,0)" xlink:href="#aO"/><use transform="matrix(0.05,0,0,0.05,98.10000000000001,0)" xlink:href="#aO"/><use transform="matrix(0.05,0,0,0.05,102.05000000000001,0)" xlink:href="#aD"/></g><path fill="#3a414a" d="M240 0l2-218c-23 76-54 145-80 218h-23L58-218 59 0H30v-248h44l77 211c21-75 51-140 76-211h43V0h-30" id="aP"/><path fill="#3a414a" d="M106-169C34-169 62-67 57 0H25v-261h32l-1 103c12-21 28-36 61-36 89 0 53 116 60 194h-32v-121c2-32-8-49-39-48" id="aQ"/><g id="p"><use transform="matrix(0.05,0,0,0.05,0,0)" xlink:href="#ap"/><use transform="matrix(0.05,0,0,0.05,9,0)" xlink:href="#an"/><use transform="matrix(0.05,0,0,0.05,14.949999999999998,0)" xlink:href="#aw"/><use transform="matrix(0.05,0,0,0.05,24.95,0)" xlink:href="#am"/><use transform="matrix(0.05,0,0,0.05,34.95,0)" xlink:href="#al"/><use transform="matrix(0.05,0,0,0.05,39.95,0)" xlink:href="#aw"/><use transform="matrix(0.05,0,0,0.05,49.95,0)" xlink:href="#aP"/><use transform="matrix(0.05,0,0,0.05,64.9,0)" xlink:href="#aw"/><use transform="matrix(0.05,0,0,0.05,74.9,0)" xlink:href="#al"/><use transform="matrix(0.05,0,0,0.05,79.9,0)" xlink:href="#aQ"/><use transform="matrix(0.05,0,0,0.05,89.9,0)" xlink:href="#ax"/><use transform="matrix(0.05,0,0,0.05,99.9,0)" xlink:href="#az"/><use transform="matrix(0.05,0,0,0.05,109.9,0)" xlink:href="#aB"/><use transform="matrix(0.05,0,0,0.05,122.85000000000001,0)" xlink:href="#aQ"/><use transform="matrix(0.05,0,0,0.05,132.85000000000002,0)" xlink:href="#am"/><use transform="matrix(0.05,0,0,0.05,142.85000000000002,0)" xlink:href="#as"/><use transform="matrix(0.05,0,0,0.05,152.85000000000002,0)" xlink:href="#as"/><use transform="matrix(0.05,0,0,0.05,162.85000000000002,0)" xlink:href="#aw"/><use transform="matrix(0.05,0,0,0.05,172.85000000000002,0)" xlink:href="#aO"/><use transform="matrix(0.05,0,0,0.05,176.8,0)" xlink:href="#au"/><use transform="matrix(0.05,0,0,0.05,182.75,0)" xlink:href="#av"/><use transform="matrix(0.05,0,0,0.05,194.75,0)" xlink:href="#al"/><use transform="matrix(0.05,0,0,0.05,199.75,0)" xlink:href="#an"/><use transform="matrix(0.05,0,0,0.05,205.69999999999996,0)" xlink:href="#ar"/><use transform="matrix(0.05,0,0,0.05,209.64999999999998,0)" xlink:href="#as"/><use transform="matrix(0.05,0,0,0.05,219.64999999999998,0)" xlink:href="#at"/><use transform="matrix(0.05,0,0,0.05,229.64999999999998,0)" xlink:href="#aD"/></g><path fill="#3a414a" d="M233-177c-1 41-23 64-60 70L243 0h-38l-65-103H63V0H30v-248c88 3 205-21 203 71zM63-129c60-2 137 13 137-47 0-61-80-42-137-45v92" id="aR"/><path fill="#3a414a" d="M84 4C-5 8 30-112 23-190h32v120c0 31 7 50 39 49 72-2 45-101 50-169h31l1 190h-30c-1-10 1-25-2-33-11 22-28 36-60 37" id="aS"/><g id="q"><use transform="matrix(0.05,0,0,0.05,0,0)" xlink:href="#av"/><use transform="matrix(0.05,0,0,0.05,12,0)" xlink:href="#aw"/><use transform="matrix(0.05,0,0,0.05,22,0)" xlink:href="#as"/><use transform="matrix(0.05,0,0,0.05,32,0)" xlink:href="#ak"/><use transform="matrix(0.05,0,0,0.05,41,0)" xlink:href="#ax"/><use transform="matrix(0.05,0,0,0.05,51,0)" xlink:href="#an"/><use transform="matrix(0.05,0,0,0.05,56.95,0)" xlink:href="#aR"/><use transform="matrix(0.05,0,0,0.05,69.9,0)" xlink:href="#aw"/><use transform="matrix(0.05,0,0,0.05,79.9,0)" xlink:href="#ak"/><use transform="matrix(0.05,0,0,0.05,88.9,0)" xlink:href="#aS"/><use transform="matrix(0.05,0,0,0.05,98.9,0)" xlink:href="#aO"/><use transform="matrix(0.05,0,0,0.05,102.85000000000001,0)" xlink:href="#al"/></g><g id="r"><use transform="matrix(0.05,0,0,0.05,0,0)" xlink:href="#ak"/><use transform="matrix(0.05,0,0,0.05,9,0)" xlink:href="#aw"/><use transform="matrix(0.05,0,0,0.05,19,0)" xlink:href="#as"/><use transform="matrix(0.05,0,0,0.05,29,0)" xlink:href="#az"/><use transform="matrix(0.05,0,0,0.05,39,0)" xlink:href="#au"/><use transform="matrix(0.05,0,0,0.05,44.95,0)" xlink:href="#av"/><use transform="matrix(0.05,0,0,0.05,56.95,0)" xlink:href="#aw"/><use transform="matrix(0.05,0,0,0.05,66.95,0)" xlink:href="#as"/><use transform="matrix(0.05,0,0,0.05,76.95,0)" xlink:href="#ak"/><use transform="matrix(0.05,0,0,0.05,85.95,0)" xlink:href="#ax"/><use transform="matrix(0.05,0,0,0.05,95.95,0)" xlink:href="#an"/><use transform="matrix(0.05,0,0,0.05,101.9,0)" xlink:href="#ay"/><use transform="matrix(0.05,0,0,0.05,106.9,0)" xlink:href="#az"/><use transform="matrix(0.05,0,0,0.05,116.9,0)" xlink:href="#aA"/></g><path fill="#3a414a" d="M30 0v-248h187v28H63v79h144v27H63v87h162V0H30" id="aT"/><g id="s"><use transform="matrix(0.05,0,0,0.05,0,0)" xlink:href="#ap"/><use transform="matrix(0.05,0,0,0.05,9,0)" xlink:href="#an"/><use transform="matrix(0.05,0,0,0.05,14.949999999999998,0)" xlink:href="#aw"/><use transform="matrix(0.05,0,0,0.05,24.95,0)" xlink:href="#am"/><use transform="matrix(0.05,0,0,0.05,34.95,0)" xlink:href="#al"/><use transform="matrix(0.05,0,0,0.05,39.95,0)" xlink:href="#aw"/><use transform="matrix(0.05,0,0,0.05,49.95,0)" xlink:href="#aT"/><use transform="matrix(0.05,0,0,0.05,61.95,0)" xlink:href="#aN"/><use transform="matrix(0.05,0,0,0.05,70.95,0)" xlink:href="#aw"/><use transform="matrix(0.05,0,0,0.05,80.95,0)" xlink:href="#as"/><use transform="matrix(0.05,0,0,0.05,90.95,0)" xlink:href="#al"/><use transform="matrix(0.05,0,0,0.05,95.95,0)" xlink:href="#aB"/><use transform="matrix(0.05,0,0,0.05,108.9,0)" xlink:href="#aQ"/><use transform="matrix(0.05,0,0,0.05,118.9,0)" xlink:href="#am"/><use transform="matrix(0.05,0,0,0.05,128.9,0)" xlink:href="#as"/><use transform="matrix(0.05,0,0,0.05,138.9,0)" xlink:href="#as"/><use transform="matrix(0.05,0,0,0.05,148.9,0)" xlink:href="#aw"/><use transform="matrix(0.05,0,0,0.05,158.9,0)" xlink:href="#aO"/><use transform="matrix(0.05,0,0,0.05,162.85,0)" xlink:href="#au"/><use transform="matrix(0.05,0,0,0.05,168.79999999999998,0)" xlink:href="#av"/><use transform="matrix(0.05,0,0,0.05,180.79999999999998,0)" xlink:href="#aw"/><use transform="matrix(0.05,0,0,0.05,190.79999999999998,0)" xlink:href="#as"/><use transform="matrix(0.05,0,0,0.05,200.79999999999998,0)" xlink:href="#ak"/><use transform="matrix(0.05,0,0,0.05,209.79999999999995,0)" xlink:href="#ax"/><use transform="matrix(0.05,0,0,0.05,219.79999999999995,0)" xlink:href="#an"/><use transform="matrix(0.05,0,0,0.05,225.74999999999997,0)" xlink:href="#ay"/><use transform="matrix(0.05,0,0,0.05,230.74999999999997,0)" xlink:href="#az"/><use transform="matrix(0.05,0,0,0.05,240.74999999999997,0)" xlink:href="#aD"/></g><g id="t"><use transform="matrix(0.05,0,0,0.05,0,0)" xlink:href="#at"/><use transform="matrix(0.05,0,0,0.05,10,0)" xlink:href="#aw"/><use transform="matrix(0.05,0,0,0.05,20,0)" xlink:href="#al"/><use transform="matrix(0.05,0,0,0.05,25,0)" xlink:href="#av"/><use transform="matrix(0.05,0,0,0.05,37,0)" xlink:href="#al"/><use transform="matrix(0.05,0,0,0.05,42,0)" xlink:href="#an"/><use transform="matrix(0.05,0,0,0.05,47.95,0)" xlink:href="#aw"/><use transform="matrix(0.05,0,0,0.05,57.95,0)" xlink:href="#am"/><use transform="matrix(0.05,0,0,0.05,67.95,0)" xlink:href="#aM"/><use transform="matrix(0.05,0,0,0.05,82.9,0)" xlink:href="#au"/><use transform="matrix(0.05,0,0,0.05,88.85000000000001,0)" xlink:href="#aD"/></g><g id="u"><use transform="matrix(0.05,0,0,0.05,0,0)" xlink:href="#av"/><use transform="matrix(0.05,0,0,0.05,12,0)" xlink:href="#al"/><use transform="matrix(0.05,0,0,0.05,17,0)" xlink:href="#an"/><use transform="matrix(0.05,0,0,0.05,22.95,0)" xlink:href="#aw"/><use transform="matrix(0.05,0,0,0.05,32.95,0)" xlink:href="#am"/><use transform="matrix(0.05,0,0,0.05,42.95,0)" xlink:href="#aM"/></g><path fill="#3a414a" d="M115-194c55 1 70 41 70 98S169 2 115 4C84 4 66-9 55-30l1 105H24l-1-265h31l2 30c10-21 28-34 59-34zm-8 174c40 0 45-34 45-75s-6-73-45-74c-42 0-51 32-51 76 0 43 10 73 51 73" id="aU"/><path fill="#3a414a" d="M30-248c118-7 216 8 213 122C240-48 200 0 122 0H30v-248zM63-27c89 8 146-16 146-99s-60-101-146-95v194" id="aV"/><g id="v"><use transform="matrix(0.05,0,0,0.05,0,0)" xlink:href="#aU"/><use transform="matrix(0.05,0,0,0.05,10,0)" xlink:href="#an"/><use transform="matrix(0.05,0,0,0.05,15.949999999999998,0)" xlink:href="#ax"/><use transform="matrix(0.05,0,0,0.05,25.950000000000003,0)" xlink:href="#ap"/><use transform="matrix(0.05,0,0,0.05,34.95,0)" xlink:href="#aw"/><use transform="matrix(0.05,0,0,0.05,44.95,0)" xlink:href="#ak"/><use transform="matrix(0.05,0,0,0.05,53.95,0)" xlink:href="#ak"/><use transform="matrix(0.05,0,0,0.05,62.95,0)" xlink:href="#aV"/><use transform="matrix(0.05,0,0,0.05,75.9,0)" xlink:href="#am"/><use transform="matrix(0.05,0,0,0.05,85.9,0)" xlink:href="#al"/><use transform="matrix(0.05,0,0,0.05,90.9,0)" xlink:href="#am"/><use transform="matrix(0.05,0,0,0.05,100.9,0)" xlink:href="#au"/><use transform="matrix(0.05,0,0,0.05,106.85000000000001,0)" xlink:href="#av"/><use transform="matrix(0.05,0,0,0.05,118.85000000000001,0)" xlink:href="#aw"/><use transform="matrix(0.05,0,0,0.05,128.85000000000002,0)" xlink:href="#as"/><use transform="matrix(0.05,0,0,0.05,138.85000000000002,0)" xlink:href="#ak"/><use transform="matrix(0.05,0,0,0.05,147.85000000000002,0)" xlink:href="#ax"/><use transform="matrix(0.05,0,0,0.05,157.85000000000002,0)" xlink:href="#an"/><use transform="matrix(0.05,0,0,0.05,163.8,0)" xlink:href="#aV"/><use transform="matrix(0.05,0,0,0.05,176.75,0)" xlink:href="#am"/><use transform="matrix(0.05,0,0,0.05,186.75,0)" xlink:href="#al"/><use transform="matrix(0.05,0,0,0.05,191.75,0)" xlink:href="#am"/><use transform="matrix(0.05,0,0,0.05,201.75,0)" xlink:href="#aD"/></g><g id="w"><use transform="matrix(0.05,0,0,0.05,0,0)" xlink:href="#av"/><use transform="matrix(0.05,0,0,0.05,12,0)" xlink:href="#aw"/><use transform="matrix(0.05,0,0,0.05,22,0)" xlink:href="#as"/><use transform="matrix(0.05,0,0,0.05,32,0)" xlink:href="#ak"/><use transform="matrix(0.05,0,0,0.05,41,0)" xlink:href="#ax"/><use transform="matrix(0.05,0,0,0.05,51,0)" xlink:href="#an"/><use transform="matrix(0.05,0,0,0.05,56.95,0)" xlink:href="#aV"/><use transform="matrix(0.05,0,0,0.05,69.9,0)" xlink:href="#am"/><use transform="matrix(0.05,0,0,0.05,79.9,0)" xlink:href="#al"/><use transform="matrix(0.05,0,0,0.05,84.9,0)" xlink:href="#am"/></g><g id="x"><use transform="matrix(0.05,0,0,0.05,0,0)" xlink:href="#av"/><use transform="matrix(0.05,0,0,0.05,12,0)" xlink:href="#aw"/><use transform="matrix(0.05,0,0,0.05,22,0)" xlink:href="#as"/><use transform="matrix(0.05,0,0,0.05,32,0)" xlink:href="#ak"/><use transform="matrix(0.05,0,0,0.05,41,0)" xlink:href="#ax"/><use transform="matrix(0.05,0,0,0.05,51,0)" xlink:href="#an"/><use transform="matrix(0.05,0,0,0.05,56.95,0)" xlink:href="#ao"/><use transform="matrix(0.05,0,0,0.05,65.9,0)" xlink:href="#am"/><use transform="matrix(0.05,0,0,0.05,75.9,0)" xlink:href="#ak"/><use transform="matrix(0.05,0,0,0.05,84.9,0)" xlink:href="#aq"/><use transform="matrix(0.05,0,0,0.05,93.9,0)" xlink:href="#aR"/><use transform="matrix(0.05,0,0,0.05,106.85000000000001,0)" xlink:href="#aw"/><use transform="matrix(0.05,0,0,0.05,116.85000000000001,0)" xlink:href="#ak"/><use transform="matrix(0.05,0,0,0.05,125.85000000000001,0)" xlink:href="#aS"/><use transform="matrix(0.05,0,0,0.05,135.85000000000002,0)" xlink:href="#aO"/><use transform="matrix(0.05,0,0,0.05,139.8,0)" xlink:href="#al"/></g><g id="y"><use transform="matrix(0.05,0,0,0.05,0,0)" xlink:href="#at"/><use transform="matrix(0.05,0,0,0.05,10,0)" xlink:href="#aw"/><use transform="matrix(0.05,0,0,0.05,20,0)" xlink:href="#al"/><use transform="matrix(0.05,0,0,0.05,25,0)" xlink:href="#av"/><use transform="matrix(0.05,0,0,0.05,37,0)" xlink:href="#aw"/><use transform="matrix(0.05,0,0,0.05,47,0)" xlink:href="#as"/><use transform="matrix(0.05,0,0,0.05,57,0)" xlink:href="#ak"/><use transform="matrix(0.05,0,0,0.05,66,0)" xlink:href="#ax"/><use transform="matrix(0.05,0,0,0.05,76,0)" xlink:href="#an"/><use transform="matrix(0.05,0,0,0.05,81.95,0)" xlink:href="#av"/><use transform="matrix(0.05,0,0,0.05,93.95,0)" xlink:href="#al"/><use transform="matrix(0.05,0,0,0.05,98.95,0)" xlink:href="#an"/><use transform="matrix(0.05,0,0,0.05,104.9,0)" xlink:href="#aw"/><use transform="matrix(0.05,0,0,0.05,114.9,0)" xlink:href="#am"/><use transform="matrix(0.05,0,0,0.05,124.9,0)" xlink:href="#aM"/><use transform="matrix(0.05,0,0,0.05,139.85,0)" xlink:href="#au"/><use transform="matrix(0.05,0,0,0.05,145.79999999999998,0)" xlink:href="#av"/><use transform="matrix(0.05,0,0,0.05,157.79999999999998,0)" xlink:href="#aw"/><use transform="matrix(0.05,0,0,0.05,167.79999999999998,0)" xlink:href="#as"/><use transform="matrix(0.05,0,0,0.05,177.79999999999998,0)" xlink:href="#ak"/><use transform="matrix(0.05,0,0,0.05,186.79999999999998,0)" xlink:href="#ax"/><use transform="matrix(0.05,0,0,0.05,196.79999999999998,0)" xlink:href="#an"/><use transform="matrix(0.05,0,0,0.05,202.74999999999997,0)" xlink:href="#ay"/><use transform="matrix(0.05,0,0,0.05,207.74999999999997,0)" xlink:href="#az"/><use transform="matrix(0.05,0,0,0.05,217.74999999999997,0)" xlink:href="#aD"/></g><path fill="#333" d="M6 0l48-248h195l-8 40H98l-12 63h132l-7 40H79L66-40h150l-8 40H6" id="aW"/><path fill="#333" d="M109 0H50L19-190h51L86-37l77-153h54" id="aX"/><g id="z"><use transform="matrix(0.06172839506172839,0,0,0.06172839506172839,0,0)" xlink:href="#aW"/><use transform="matrix(0.06172839506172839,0,0,0.06172839506172839,14.814814814814813,0)" xlink:href="#aX"/><use transform="matrix(0.06172839506172839,0,0,0.06172839506172839,27.160493827160494,0)" xlink:href="#C"/><use transform="matrix(0.06172839506172839,0,0,0.06172839506172839,39.50617283950617,0)" xlink:href="#D"/><use transform="matrix(0.06172839506172839,0,0,0.06172839506172839,53.02469135802469,0)" xlink:href="#aG"/></g><g id="A"><use transform="matrix(0.06172839506172839,0,0,0.06172839506172839,0,0)" xlink:href="#aJ"/><use transform="matrix(0.06172839506172839,0,0,0.06172839506172839,15.987654320987653,0)" xlink:href="#aH"/><use transform="matrix(0.06172839506172839,0,0,0.06172839506172839,29.50617283950617,0)" xlink:href="#K"/><use transform="matrix(0.06172839506172839,0,0,0.06172839506172839,41.85185185185185,0)" xlink:href="#D"/><use transform="matrix(0.06172839506172839,0,0,0.06172839506172839,55.37037037037037,0)" xlink:href="#D"/><use transform="matrix(0.06172839506172839,0,0,0.06172839506172839,68.88888888888889,0)" xlink:href="#C"/><use transform="matrix(0.06172839506172839,0,0,0.06172839506172839,81.23456790123457,0)" xlink:href="#aK"/></g></defs></g></svg>