<svg xmlns="http://www.w3.org/2000/svg" xmlns:xlink="http://www.w3.org/1999/xlink" xmlns:lucid="lucid" width="360" height="222"><g transform="translate(-122.66666666666663 -399.6666666666665)" lucid:page-tab-id="cNe3Ot8mtHAs"><path d="M142.67 425.67a6 6 0 0 1 6-6h308a6 6 0 0 1 6 6v170a6 6 0 0 1-6 6h-308a6 6 0 0 1-6-6z" stroke="#3a414a" fill="#fff"/><path d="M142.67 478.87h320" stroke="#3a414a" fill="none"/><use xlink:href="#a" transform="matrix(1,0,0,1,150.66666666666663,427.6666666666665) translate(77.125 14.799999999999999)"/><use xlink:href="#b" transform="matrix(1,0,0,1,150.66666666666663,427.6666666666665) translate(56.25 36.4)"/><use xlink:href="#c" transform="matrix(1,0,0,1,154.66666666666663,486.8666666666665) translate(0 17.94444444444445)"/><use xlink:href="#d" transform="matrix(1,0,0,1,154.66666666666663,486.8666666666665) translate(0 44.611111111111114)"/><use xlink:href="#e" transform="matrix(1,0,0,1,154.66666666666663,486.8666666666665) translate(0 71.27777777777779)"/><use xlink:href="#f" transform="matrix(1,0,0,1,154.66666666666663,486.8666666666665) translate(0 97.94444444444446)"/><defs><path d="M15-91v-56l181-69v40L49-119l147 57v40" id="g"/><path d="M185-48c-13 30-37 53-82 52C43 2 14-33 14-96s30-98 90-98c62 0 83 45 84 108H66c0 31 8 55 39 56 18 0 30-7 34-22zm-45-69c5-46-57-63-70-21-2 6-4 13-4 21h74" id="h"/><path d="M135-194c87-1 58 113 63 194h-50c-7-57 23-157-34-157-59 0-34 97-39 157H25l-1-190h47c2 12-1 28 3 38 12-26 28-41 61-42" id="i"/><path d="M85 4C-2 5 27-109 22-190h50c7 57-23 150 33 157 60-5 35-97 40-157h50l1 190h-47c-2-12 1-28-3-38-12 25-28 42-61 42" id="j"/><path d="M220-157c-53 9-28 100-34 157h-49v-107c1-27-5-49-29-50C55-147 81-57 75 0H25l-1-190h47c2 12-1 28 3 38 10-53 101-56 108 0 13-22 24-43 59-42 82 1 51 116 57 194h-49v-107c-1-25-5-48-29-50" id="k"/><path d="M135-150c-39-12-60 13-60 57V0H25l-1-190h47c2 13-1 29 3 40 6-28 27-53 61-41v41" id="l"/><path d="M133-34C117-15 103 5 69 4 32 3 11-16 11-54c-1-60 55-63 116-61 1-26-3-47-28-47-18 1-26 9-28 27l-52-2c7-38 36-58 82-57s74 22 75 68l1 82c-1 14 12 18 25 15v27c-30 8-71 5-69-32zm-48 3c29 0 43-24 42-57-32 0-66-3-65 30 0 17 8 27 23 27" id="m"/><path d="M115-3C79 11 28 4 28-45v-112H4v-33h27l15-45h31v45h36v33H77v99c-1 23 16 31 38 25v30" id="n"/><path d="M25-224v-37h50v37H25zM25 0v-190h50V0H25" id="o"/><path d="M110-194c64 0 96 36 96 99 0 64-35 99-97 99-61 0-95-36-95-99 0-62 34-99 96-99zm-1 164c35 0 45-28 45-65 0-40-10-65-43-65-34 0-45 26-45 65 0 36 10 65 43 65" id="p"/><path d="M15-22v-40l146-57-146-57v-40l181 69v56" id="q"/><g id="a"><use transform="matrix(0.05,0,0,0.05,0,0)" xlink:href="#g"/><use transform="matrix(0.05,0,0,0.05,10.5,0)" xlink:href="#g"/><use transform="matrix(0.05,0,0,0.05,21,0)" xlink:href="#h"/><use transform="matrix(0.05,0,0,0.05,31,0)" xlink:href="#i"/><use transform="matrix(0.05,0,0,0.05,41.95,0)" xlink:href="#j"/><use transform="matrix(0.05,0,0,0.05,52.900000000000006,0)" xlink:href="#k"/><use transform="matrix(0.05,0,0,0.05,68.9,0)" xlink:href="#h"/><use transform="matrix(0.05,0,0,0.05,78.9,0)" xlink:href="#l"/><use transform="matrix(0.05,0,0,0.05,85.9,0)" xlink:href="#m"/><use transform="matrix(0.05,0,0,0.05,95.9,0)" xlink:href="#n"/><use transform="matrix(0.05,0,0,0.05,101.85000000000001,0)" xlink:href="#o"/><use transform="matrix(0.05,0,0,0.05,106.85000000000001,0)" xlink:href="#p"/><use transform="matrix(0.05,0,0,0.05,117.80000000000001,0)" xlink:href="#i"/><use transform="matrix(0.05,0,0,0.05,128.75,0)" xlink:href="#q"/><use transform="matrix(0.05,0,0,0.05,139.25,0)" xlink:href="#q"/></g><path d="M169-182c-1-43-94-46-97-3 18 66 151 10 154 114 3 95-165 93-204 36-6-8-10-19-12-30l50-8c3 46 112 56 116 5-17-69-150-10-154-114-4-87 153-88 188-35 5 8 8 18 10 28" id="r"/><path d="M135-194c53 0 70 44 70 98 0 56-19 98-73 100-31 1-45-17-59-34 3 33 2 69 2 105H25l-1-265h48c2 10 0 23 3 31 11-24 29-35 60-35zM114-30c33 0 39-31 40-66 0-38-9-64-40-64-56 0-55 130 0 130" id="s"/><path d="M88-194c31-1 46 15 58 34l-1-101h50l1 261h-48c-2-10 0-23-3-31C134-8 116 4 84 4 32 4 16-41 15-95c0-56 19-97 73-99zm17 164c33 0 40-30 41-66 1-37-9-64-41-64s-38 30-39 65c0 43 13 65 39 65" id="t"/><path d="M76-208v77h127v40H76V0H24v-248h183v40H76" id="u"/><path d="M25 0v-261h50V0H25" id="v"/><path d="M137-138c1-29-70-34-71-4 15 46 118 7 119 86 1 83-164 76-172 9l43-7c4 19 20 25 44 25 33 8 57-30 24-41C81-84 22-81 20-136c-2-80 154-74 161-7" id="w"/><g id="b"><use transform="matrix(0.05,0,0,0.05,0,0)" xlink:href="#r"/><use transform="matrix(0.05,0,0,0.05,12,0)" xlink:href="#j"/><use transform="matrix(0.05,0,0,0.05,22.950000000000003,0)" xlink:href="#s"/><use transform="matrix(0.05,0,0,0.05,33.900000000000006,0)" xlink:href="#s"/><use transform="matrix(0.05,0,0,0.05,44.85000000000001,0)" xlink:href="#p"/><use transform="matrix(0.05,0,0,0.05,55.80000000000001,0)" xlink:href="#l"/><use transform="matrix(0.05,0,0,0.05,62.80000000000001,0)" xlink:href="#n"/><use transform="matrix(0.05,0,0,0.05,68.75000000000001,0)" xlink:href="#h"/><use transform="matrix(0.05,0,0,0.05,78.75000000000001,0)" xlink:href="#t"/><use transform="matrix(0.05,0,0,0.05,89.70000000000002,0)" xlink:href="#u"/><use transform="matrix(0.05,0,0,0.05,100.65000000000002,0)" xlink:href="#o"/><use transform="matrix(0.05,0,0,0.05,105.65000000000003,0)" xlink:href="#v"/><use transform="matrix(0.05,0,0,0.05,110.65000000000003,0)" xlink:href="#h"/><use transform="matrix(0.05,0,0,0.05,120.65000000000003,0)" xlink:href="#u"/><use transform="matrix(0.05,0,0,0.05,131.60000000000002,0)" xlink:href="#p"/><use transform="matrix(0.05,0,0,0.05,142.55,0)" xlink:href="#l"/><use transform="matrix(0.05,0,0,0.05,149.55,0)" xlink:href="#k"/><use transform="matrix(0.05,0,0,0.05,165.55,0)" xlink:href="#m"/><use transform="matrix(0.05,0,0,0.05,175.55,0)" xlink:href="#n"/><use transform="matrix(0.05,0,0,0.05,181.5,0)" xlink:href="#w"/></g><path fill="#3a414a" d="M24-231v-30h32v30H24zM-9 49c24 4 33-6 33-30v-209h32V24c2 40-23 58-65 49V49" id="x"/><path fill="#3a414a" d="M135-143c-3-34-86-38-87 0 15 53 115 12 119 90S17 21 10-45l28-5c4 36 97 45 98 0-10-56-113-15-118-90-4-57 82-63 122-42 12 7 21 19 24 35" id="y"/><path fill="#3a414a" d="M100-194c62-1 85 37 85 99 1 63-27 99-86 99S16-35 15-95c0-66 28-99 85-99zM99-20c44 1 53-31 53-75 0-43-8-75-51-75s-53 32-53 75 10 74 51 75" id="z"/><path fill="#3a414a" d="M117-194c89-4 53 116 60 194h-32v-121c0-31-8-49-39-48C34-167 62-67 57 0H25l-1-190h30c1 10-1 24 2 32 11-22 29-35 61-36" id="A"/><path fill="#3a414a" d="M68-38c1 34 0 65-14 84H32c9-13 17-26 17-46H33v-38h35" id="B"/><g id="c"><use transform="matrix(0.06172839506172839,0,0,0.06172839506172839,0,0)" xlink:href="#x"/><use transform="matrix(0.06172839506172839,0,0,0.06172839506172839,4.876543209876543,0)" xlink:href="#y"/><use transform="matrix(0.06172839506172839,0,0,0.06172839506172839,15.987654320987653,0)" xlink:href="#z"/><use transform="matrix(0.06172839506172839,0,0,0.06172839506172839,28.333333333333332,0)" xlink:href="#A"/><use transform="matrix(0.06172839506172839,0,0,0.06172839506172839,40.67901234567901,0)" xlink:href="#B"/></g><path fill="#3a414a" d="M96-169c-40 0-48 33-48 73s9 75 48 75c24 0 41-14 43-38l32 2c-6 37-31 61-74 61-59 0-76-41-82-99-10-93 101-131 147-64 4 7 5 14 7 22l-32 3c-4-21-16-35-41-35" id="C"/><path fill="#3a414a" d="M108 0H70L1-190h34L89-25l56-165h34" id="D"/><g id="d"><use transform="matrix(0.06172839506172839,0,0,0.06172839506172839,0,0)" xlink:href="#C"/><use transform="matrix(0.06172839506172839,0,0,0.06172839506172839,11.11111111111111,0)" xlink:href="#y"/><use transform="matrix(0.06172839506172839,0,0,0.06172839506172839,22.22222222222222,0)" xlink:href="#D"/><use transform="matrix(0.06172839506172839,0,0,0.06172839506172839,31.666666666666664,0)" xlink:href="#B"/></g><path fill="#3a414a" d="M141 0L90-78 38 0H4l68-98-65-92h35l48 74 47-74h35l-64 92 68 98h-35" id="E"/><path fill="#3a414a" d="M24 0v-261h32V0H24" id="F"/><g id="e"><use transform="matrix(0.06172839506172839,0,0,0.06172839506172839,0,0)" xlink:href="#E"/><use transform="matrix(0.06172839506172839,0,0,0.06172839506172839,11.11111111111111,0)" xlink:href="#F"/><use transform="matrix(0.06172839506172839,0,0,0.06172839506172839,15.987654320987653,0)" xlink:href="#y"/><use transform="matrix(0.06172839506172839,0,0,0.06172839506172839,27.098765432098766,0)" xlink:href="#E"/><use transform="matrix(0.06172839506172839,0,0,0.06172839506172839,38.20987654320987,0)" xlink:href="#B"/></g><path fill="#3a414a" d="M210-169c-67 3-38 105-44 169h-31v-121c0-29-5-50-35-48C34-165 62-65 56 0H25l-1-190h30c1 10-1 24 2 32 10-44 99-50 107 0 11-21 27-35 58-36 85-2 47 119 55 194h-31v-121c0-29-5-49-35-48" id="G"/><g id="f"><use transform="matrix(0.06172839506172839,0,0,0.06172839506172839,0,0)" xlink:href="#E"/><use transform="matrix(0.06172839506172839,0,0,0.06172839506172839,11.11111111111111,0)" xlink:href="#G"/><use transform="matrix(0.06172839506172839,0,0,0.06172839506172839,29.5679012345679,0)" xlink:href="#F"/></g></defs></g></svg>